<svg id="Ebene_1" data-name="Ebene 1" xmlns="http://www.w3.org/2000/svg" xmlns:xlink="http://www.w3.org/1999/xlink" viewBox="0 0 586.54 450.04"><defs><style>.cls-1{fill:#fff;}.cls-2{fill:url(#Unbenannter_Verlauf_27);}.cls-3{fill:#f2f2f2;}</style><linearGradient id="Unbenannter_Verlauf_27" x1="217.02" y1="386.78" x2="392.78" y2="386.78" gradientUnits="userSpaceOnUse"><stop offset="0" stop-color="#c2ff5a" stop-opacity="0"/><stop offset="0.23" stop-color="#b8f88d"/><stop offset="0.44" stop-color="#aff2b7"/><stop offset="0.66" stop-color="#a7eddd"/><stop offset="0.78" stop-color="#a4ebeb"/><stop offset="0.88" stop-color="#a2e9f7" stop-opacity="0.53"/><stop offset="1" stop-color="#a0e8ff" stop-opacity="0"/></linearGradient></defs><title>hub</title><path class="cls-1" d="M542.36,219.06l-21,.54-21.28.46c-7.14.13-14.31.25-21.5.32s-14.39.14-21.58.15a1.47,1.47,0,0,1-1.47-1.46h0l0-10.8a1.49,1.49,0,0,1,1.49-1.5h0l21.33.06,21.33.19c7.11.11,14.22.18,21.33.35s14.22.34,21.33.54h0a.35.35,0,0,1,.34.36h0Zm0,0-.36-10.8.36.36c-7.11.2-14.22.42-21.33.54s-14.22.23-21.33.35l-21.33.19-21.33.06,1.5-1.5,0,10.8L457,217.59q10.54,0,21.08.15c7,.06,14.08.19,21.17.32l21.38.46Z"/><path class="cls-1" d="M542.36,160.33l-21,.54-21.28.46c-7.14.13-14.31.25-21.5.32s-14.39.14-21.58.15a1.47,1.47,0,0,1-1.47-1.46h0l0-10.8A1.49,1.49,0,0,1,457,148h0l21.33.06,21.33.19c7.11.11,14.22.18,21.33.35s14.22.34,21.33.54h0a.35.35,0,0,1,.34.36h0Zm0,0-.36-10.8.36.36c-7.11.2-14.22.42-21.33.54s-14.22.23-21.33.35l-21.33.19L457,151l1.5-1.5,0,10.8L457,158.86q10.54,0,21.08.15c7,.06,14.08.19,21.17.32l21.38.46Z"/><path class="cls-1" d="M542.36,272.26l-17.7.53-18,.46c-6.05.12-12.12.26-18.22.32s-12.21.15-18.31.15a1.46,1.46,0,0,1-1.46-1.46h0l0-10.8a1.49,1.49,0,0,1,1.49-1.5h0l18.06.06,18.06.18c6,.11,12,.18,18.06.33s12,.32,18.06.52h0a.4.4,0,0,1,.38.41h0Zm0,0-.41-10.8.41.41c-6,.2-12,.4-18.06.52s-12,.22-18.06.33l-18.06.18-18.06.06,1.5-1.5,0,10.8-1.46-1.46c5.93,0,11.87.07,17.81.15s11.91.2,17.9.32l18.11.46Z"/><path class="cls-1" d="M487.62,314.66c4.56-.33,9.12-.52,13.69-.73s9.12-.33,13.69-.43,9.12-.17,13.69-.25l13.69-.09a1.49,1.49,0,0,1,1.5,1.48v0l0,10.8h0a1.44,1.44,0,0,1-1.45,1.44c-3.76,0-7.52-.1-11.28-.15s-7.52-.18-11.28-.26-7.52-.23-11.28-.42-7.52-.36-11.28-.62q5.64-.39,11.28-.62c3.76-.18,7.52-.29,11.28-.42s7.52-.22,11.28-.26,7.52-.14,11.28-.15l-1.45,1.45,0-10.8,1.5,1.5-13.69-.09c-4.56-.08-9.12-.11-13.69-.25s-9.12-.26-13.69-.43S492.18,315,487.62,314.66Z"/><path class="cls-1" d="M542.36,110.18c.34,11,.48,22.06.73,33.09l.42,33.09c.27,22.06.31,44.12.35,66.18s-.07,44.12-.35,66.18l-.42,33.09c-.25,11-.4,22.06-.74,33.09-.34-11-.49-22.06-.74-33.09l-.42-33.09c-.27-22.06-.31-44.12-.35-66.18s.08-44.12.35-66.18l.42-33.09C541.88,132.24,542,121.21,542.36,110.18Z"/><path class="cls-1" d="M457,110.18c.62,10.63.95,21.26,1.17,31.89.14,5.31.17,10.63.25,15.94l.08,15.94-.08,15.94c-.08,5.31-.11,10.63-.25,15.94-.22,10.63-.55,21.26-1.17,31.89-.62-10.63-1-21.26-1.17-31.89-.14-5.31-.17-10.63-.25-15.94L455.53,174l.08-15.94c.08-5.31.11-10.63.25-15.94C456.09,131.44,456.41,120.81,457,110.18Z"/><path class="cls-1" d="M510.52,206.26c-6.4.34-13.06.65-19.83.91l-10.25.33-10.34.18a1.4,1.4,0,0,1-1.43-1.38h0v0l-.07-12.63a1.49,1.49,0,0,1,1.48-1.5h0l10.1.05c3.37,0,6.74.09,10.1.14s6.74.16,10.1.24,6.74.23,10.1.36h.06a.67.67,0,0,1,.65.7h0c-.1,2.19-.2,4.36-.34,6.46Zm0,0-.71-12.63.71.71c-3.37.13-6.74.27-10.1.36s-6.74.2-10.1.24-6.74.13-10.1.14l-10.1.05,1.5-1.5-.07,12.63-1.43-1.43L480,205l10,.33C496.64,205.61,503.45,205.92,510.52,206.26Z"/><path class="cls-1" d="M505.43,191.64c-4.73.31-9.68.62-14.76.86-2.53.14-5.11.22-7.69.32s-5.19.13-7.78.19a1.35,1.35,0,0,1-1.38-1.32v-.06c-.1-4.21-.08-8.42-.12-12.63a1.48,1.48,0,0,1,1.47-1.5h0l7.56,0c2.52,0,5,.07,7.56.12s5,.11,7.56.2,5,.18,7.56.3h.07a.79.79,0,0,1,.76.82c-.08,2.2-.25,4.38-.38,6.5Zm0,0c-.13-2.24-.29-4.4-.44-6.5s-.3-4.12-.38-6.13l.83.83c-2.52.12-5,.23-7.56.3s-5,.17-7.56.2-5,.12-7.56.12l-7.56,0,1.5-1.5c0,4.21,0,8.42-.12,12.63l-1.38-1.38c2.44.06,4.87.08,7.33.19s4.92.18,7.43.32C495,191,500.08,191.33,505.43,191.64Z"/><path class="cls-1" d="M532.88,226.82c.32,5.08.63,10.39.88,15.83.14,2.71.22,5.47.32,8.23s.13,5.55.19,8.32a1.36,1.36,0,0,1-1.33,1.39h-.06c-2.1.05-4.21.06-6.31.07l-6.31,0a1.49,1.49,0,0,1-1.5-1.48v0l0-8.1c0-2.7.08-5.4.12-8.1.1-5.4.28-10.79.53-16.19v-.07a.76.76,0,0,1,.8-.73c2.2.09,4.37.24,6.49.37Zm0,0c-2.23.13-4.39.28-6.49.43s-4.13.28-6.14.37l.8-.8c.25,5.4.43,10.79.53,16.19,0,2.7.12,5.4.12,8.1l0,8.1-1.5-1.5,6.31,0c2.1,0,4.21,0,6.31.07l-1.39,1.39c.06-2.62.09-5.23.19-7.87s.18-5.28.32-8C532.25,238,532.56,232.53,532.88,226.82Z"/><path class="cls-1" d="M518.37,236.19c.31,3.52.62,7.27.87,11.15.15,1.93.22,3.91.32,5.88s.13,4,.19,6a1.34,1.34,0,0,1-1.3,1.38h-.08c-3.16.1-6.32.07-9.48.12a1.48,1.48,0,0,1-1.5-1.46v0l0-5.75c0-1.92.07-3.84.12-5.75s.12-3.84.21-5.75.19-3.84.31-5.75v-.09a.78.78,0,0,1,.82-.73c1.68.08,3.33.25,4.93.38Zm0,0c-1.71.13-3.35.29-4.92.44s-3.08.3-4.56.38l.82-.82c.12,1.92.24,3.84.31,5.75s.17,3.84.21,5.75.12,3.84.12,5.75l0,5.75-1.5-1.5c3.16,0,6.32,0,9.48.12L517,259.2c.06-1.84.08-3.67.19-5.53s.18-3.71.32-5.62C517.75,244.26,518.06,240.34,518.37,236.19Z"/><path class="cls-1" d="M148.7,163l.51,13.17.45,13.46.32,13.66c.06,4.58.16,9.16.17,13.75a1.44,1.44,0,0,1-1.43,1.45h0l-12.94.05a1.49,1.49,0,0,1-1.5-1.49h0l.06-13.51.15-13.51c.15-9,.35-18,.69-27v0a.58.58,0,0,1,.59-.55C140.22,162.6,144.57,162.88,148.7,163Zm0,0c-4.5.17-8.78.45-12.94.6l.6-.6c.35,9,.55,18,.69,27l.15,13.51.05,13.51-1.5-1.5,12.94.05-1.44,1.44c0-4.42.11-8.84.17-13.27l.32-13.36.45-13.56Z"/><path class="cls-1" d="M159.06,173l.51,10.69.45,11c.11,3.71.25,7.43.32,11.19s.16,7.51.17,11.28a1.44,1.44,0,0,1-1.43,1.45h0l-10.45.05a1.49,1.49,0,0,1-1.5-1.48v0l.06-11,.15-11c.15-7.36.35-14.71.7-22.07v-.05a.57.57,0,0,1,.59-.54C152.25,172.51,155.76,172.79,159.06,173Zm0,0c-3.67.17-7.12.45-10.45.59l.59-.59c.35,7.36.55,14.71.7,22.07l.15,11,.06,11-1.5-1.5,10.45.05-1.45,1.45c0-3.59.11-7.19.17-10.79s.21-7.24.32-10.88l.45-11.08Z"/><path class="cls-1" d="M134.79,178.69c.32,6.08.63,12.4.88,18.84s.43,13,.51,19.57a1.38,1.38,0,0,1-1.35,1.39h0c-2.42,0-4.84.05-7.26.06l-7.26,0a1.49,1.49,0,0,1-1.5-1.48v0l0-9.6c0-3.2.08-6.4.13-9.6s.13-6.4.22-9.6.21-6.4.32-9.6v-.06a.76.76,0,0,1,.78-.73h0c2.51.09,5,.24,7.43.37Zm0,0-7.43.42c-2.41.13-4.76.27-7.08.37l.79-.79c.11,3.2.25,6.4.32,9.6s.18,6.4.22,9.6.12,6.4.13,9.6l0,9.6-1.5-1.5,7.26,0c2.42,0,4.84,0,7.26.06l-1.4,1.4c.08-6.24.26-12.48.51-18.84S134.47,185.41,134.79,178.69Z"/><path class="cls-1" d="M522.07,148.78l-12.3.63c-2.09.11-4.22.18-6.35.26s-4.27.16-6.42.2a1.07,1.07,0,0,1-1.08-.89v-.05l-1.12-6.48L493.73,136c-.72-4.33-1.36-8.66-2-13a1.47,1.47,0,0,1,1.23-1.68l.2,0h0c5.45-.05,10.9,0,16.36,0s10.91.14,16.36.3h.06a1.12,1.12,0,0,1,1.08,1.15,1.22,1.22,0,0,1,0,.15c-.75,4.45-1.59,8.86-2.42,13.19Zm0,0,1.29-13.35c.45-4.34.88-8.61,1.4-12.84l1.13,1.3c-5.45.16-10.91.21-16.36.3s-10.9.1-16.36,0l1.46-1.69c.61,4.34,1.25,8.68,1.8,13l.86,6.52.79,6.53-1.09-.94q3,.07,6.11.2l6.19.26Z"/><path class="cls-1" d="M92.79,217.37l-12.35.47c-4.18.17-8.44.33-12.72.42a.88.88,0,0,1-.89-.77v0c-.43-3.85-.82-7.71-1.21-11.56s-.78-7.71-1.13-11.57c-.75-7.71-1.41-15.43-2.07-23.15a1.48,1.48,0,0,1,1.35-1.6h.13c5.45,0,10.91,0,16.36,0s10.9.09,16.36.15h0A1.3,1.3,0,0,1,97.92,171v.1c-.35,3.93-.78,7.85-1.18,11.76s-.83,7.8-1.27,11.67l-1.34,11.49Zm0,0,1.14-23.54c.2-3.86.4-7.69.64-11.5s.45-7.61.73-11.4l1.3,1.41c-5.45.05-10.9.15-16.36.15s-10.91.07-16.36,0l1.48-1.61c.62,7.72,1.22,15.44,1.75,23.17.29,3.86.54,7.73.78,11.59s.5,7.73.7,11.6l-.89-.82c4.08.09,8.18.25,12.35.42Z"/><path class="cls-1" d="M137.52,346.25q-12,.24-23.94.4L89.63,347l-47.89.42a1.14,1.14,0,0,1-1.15-1.13v0c-.12-10.7-.14-21.4-.17-32.1L40.33,282l-.08-32.1.09-32.1h0a1.4,1.4,0,0,1,1.4-1.4l35.1.1c11.7,0,23.4.13,35.1.23l35.1.3,35.1.48h0a.28.28,0,0,1,.28.29h0l-.29,16-.29-16,.29.29-35.1.48-35.1.3c-11.7.1-23.4.22-35.1.23l-35.1.1,1.4-1.4.09,32.1L43.15,282l-.09,32.1c0,10.7,0,21.4-.17,32.1l-1.15-1.15,47.89.42,23.94.34Q125.55,346,137.52,346.25Z"/><path class="cls-1" d="M112.15,227.1,86,227.56l-12.91.24L60.3,228l.86-.86.28,27.17q.16,13.58.21,27.17c.12,18.11.12,36.22.16,54.33l-1.5-1.5c17.28,0,34.56,0,51.85.14l-1.36,1.36c.05-9,.09-17.95.21-26.95l.33-27,.16-13.57.23-13.65Zm0,0,.43,26.88.23,13.52.16,13.6.33,27.29c.13,9.11.16,18.25.21,27.39a1.35,1.35,0,0,1-1.34,1.36h0c-17.28.12-34.56.1-51.85.14a1.5,1.5,0,0,1-1.5-1.49h0c0-18.11,0-36.22.16-54.33q.05-13.58.21-27.17l.28-27.17v0a.85.85,0,0,1,.86-.84h0l13.09.16,13,.24Z"/><path class="cls-1" d="M69.44,346.25l-8.62.55c-2.79.2-5.48.33-8.16.46l1-1,.22,6.5c.07,2.17.09,4.33.14,6.5.11,4.33.08,8.67.13,13l-1.5-1.5,8.39.05c2.8,0,5.59.1,8.39.15l-1.3,1.3c0-2.09.14-4.18.21-6.29s.19-4.23.31-6.39Zm0,0c.28,4.06.55,8.31.78,12.68.11,2.18.24,4.39.31,6.62s.18,4.46.21,6.71a1.28,1.28,0,0,1-1.27,1.3h0c-2.8,0-5.59.13-8.39.15l-8.39.05h0a1.48,1.48,0,0,1-1.49-1.47v0c0-4.33,0-8.67.13-13,0-2.17.07-4.33.14-6.5l.22-6.5v-.08a1,1,0,0,1,1-.93h0c2.91.13,5.81.26,8.62.46Z"/><path class="cls-1" d="M164,257.68c-.19-5.1-.32-10.19-.44-15.29l-.36-15.29.8.8q-13,.25-25.92.4l-25.92.23,1.43-1.43.07,27.17-.09,27.17c-.08,9.06-.12,18.11-.26,27.17s-.26,18.11-.46,27.17l-.69-.69,12.69.32c4.23.09,8.46.23,12.69.38-4.23.15-8.46.28-12.69.38l-12.69.32a.68.68,0,0,1-.69-.66h0v0q-.29-13.58-.46-27.17c-.14-9.06-.18-18.11-.26-27.17l-.09-27.17.07-27.17v0a1.41,1.41,0,0,1,1.42-1.41h0l25.92.23q13,.15,25.92.4h0a.78.78,0,0,1,.76.8h0l-.36,15.29C164.32,247.48,164.18,252.58,164,257.68Z"/><path class="cls-1" d="M93.42,282A7.49,7.49,0,0,1,96,280.87a10.19,10.19,0,0,1,2.55-.32,10,10,0,0,1,2.55.32,7.41,7.41,0,0,1,2.55,1.18,7.41,7.41,0,0,1-2.55,1.18,10,10,0,0,1-2.55.32,10.19,10.19,0,0,1-2.55-.32A7.49,7.49,0,0,1,93.42,282Z"/><path class="cls-1" d="M120.17,282a7.49,7.49,0,0,1,2.55-1.18,10.19,10.19,0,0,1,2.55-.32,10,10,0,0,1,2.55.32,7.41,7.41,0,0,1,2.55,1.18,7.41,7.41,0,0,1-2.55,1.18,10,10,0,0,1-2.55.32,10.19,10.19,0,0,1-2.55-.32A7.49,7.49,0,0,1,120.17,282Z"/><path class="cls-1" d="M432.41,233.82c3.35-.33,6.7-.53,10-.73a27.66,27.66,0,0,1,10.25,1.3,27.19,27.19,0,0,1,9.12,5.13,28.25,28.25,0,0,1,6.56,8.22,27.77,27.77,0,0,1,3,10.1c.06.88.06,1.76.1,2.64s0,1.69,0,2.53c0,1.67-.08,3.35-.14,5-.22,6.7-.55,13.4-1.17,20.09-.62-6.7-1-13.4-1.17-20.09-.06-1.67-.12-3.35-.14-5,0-.83,0-1.7-.07-2.49s-.1-1.59-.19-2.38a25.63,25.63,0,0,0-2.81-9,27,27,0,0,0-13.82-12.54,29.12,29.12,0,0,0-9.45-2C439.11,234.35,435.76,234.15,432.41,233.82Z"/><path class="cls-1" d="M163.77,288.13q-.24-8.93-.4-17.86l-.17-8.93a30.13,30.13,0,0,1,1.21-9,28.3,28.3,0,0,1,10.69-14.58,28.87,28.87,0,0,1,8.33-3.94c.75-.18,1.48-.44,2.25-.56l2.29-.37c1.54-.11,3.11-.22,4.57-.21,23.81-.27,47.62-.31,71.42-.35s47.62.07,71.42.35l35.71.42c11.9.25,23.81.4,35.71.74-11.9.34-23.81.49-35.71.74L335.4,235c-23.81.27-47.62.31-71.42.35s-47.62-.08-71.42-.35c-1.51,0-2.92,0-4.35.09l-2.12.3c-.71.09-1.39.32-2.09.47a26.12,26.12,0,0,0-18.18,17,28.82,28.82,0,0,0-1.48,8.56l-.17,8.93Q164,279.2,163.77,288.13Z"/><path class="cls-1" d="M316.94,322.9c15-.46,29.9-.78,44.85-1l22.43-.27,22.43-.16,22.43-.05,22.43,0q22.43.08,44.85.38h0a1.05,1.05,0,0,1,1,1.07h0l-.33,20-.47,20h0a.26.26,0,0,1-.26.25h0l-8.74-.27,8.74-.27-.27.27-.47-20-.33-20,1.07,1.07q-22.43.3-44.85.38l-22.43,0-22.43-.05-22.43-.16-22.43-.27C346.84,323.68,331.89,323.36,316.94,322.9Z"/><path class="cls-1" d="M316.94,346.25c-.11-3.89-.24-7.78-.31-11.68l-.25-11.68.56.56c-7.48.18-15,.27-22.43.37l-22.43.29q-22.43.21-44.85.25c-15,.06-29.9,0-44.85-.06l-22.43-.15-22.43-.29,1-1c-.1,6.67-.15,13.34-.29,20l-.43,20-.25-.25,8.74.25-8.74.25a.24.24,0,0,1-.25-.23h0l-.43-20c-.14-6.67-.19-13.34-.29-20a1,1,0,0,1,.94-1h0l22.43-.29,22.43-.15c15,0,29.9-.11,44.85-.06s29.9.11,44.85.25l22.43.29c7.48.09,15,.18,22.43.37h0a.54.54,0,0,1,.53.56l-.25,11.68C317.18,338.47,317,342.36,316.94,346.25Z"/><path class="cls-1" d="M487.62,322.9l-23,.78c-3.9.11-7.83.24-11.78.31s-7.91.18-11.87.21a1.29,1.29,0,0,1-1.3-1.28v0l-.1-8.88a43.16,43.16,0,0,1,.13-4.59l.35-2.33.58-2.28a25.45,25.45,0,0,1,20.13-17.73,27.65,27.65,0,0,1,4.66-.37l4.44,0q8.88.08,17.76.26h0a1.09,1.09,0,0,1,1.07,1.11q-.07,4.44-.21,8.86c-.09,2.94-.15,5.88-.28,8.78Zm0,0L487,305.26c-.12-2.9-.19-5.75-.28-8.61s-.16-5.69-.21-8.52l1.11,1.11q-8.88.19-17.76.26l-4.44,0a28.29,28.29,0,0,0-4.17.38,22.62,22.62,0,0,0-7.76,2.91,23.12,23.12,0,0,0-10.08,12.82l-.53,2-.32,2.06c-.11,1.38-.2,2.76-.19,4.28l-.1,8.88-1.3-1.3c3.81,0,7.63.14,11.46.21l11.55.31Z"/><path class="cls-1" d="M146.26,322.9l23.65-.78,11.55-.31c3.83-.08,7.65-.18,11.46-.21l-1.3,1.3-.1-8.88c0-1.52-.08-2.89-.19-4.28l-.32-2.06-.53-2a23.12,23.12,0,0,0-10.08-12.82,22.62,22.62,0,0,0-7.76-2.91,28.29,28.29,0,0,0-4.17-.38l-4.44,0q-8.88-.08-17.76-.26l1.11-1.11q-.07,4.25-.21,8.52c-.09,2.86-.15,5.71-.28,8.61Zm0,0-.62-17.13c-.12-2.9-.19-5.84-.28-8.78s-.16-5.9-.21-8.86a1.09,1.09,0,0,1,1.07-1.11h0q8.88-.19,17.76-.26l4.44,0a27.65,27.65,0,0,1,4.66.37,25.45,25.45,0,0,1,20.13,17.73l.58,2.28.35,2.33a43.16,43.16,0,0,1,.13,4.59l-.1,8.88v0a1.29,1.29,0,0,1-1.3,1.28c-4,0-7.93-.14-11.87-.21s-7.88-.19-11.78-.31Z"/><path class="cls-1" d="M272.28,393.27c-5.25.19-10.5.33-15.75.45s-10.5.28-15.75.36c-10.5.21-21,.33-31.51.46s-21,.19-31.51.19l-15.75,0-15.75,0a1.46,1.46,0,0,1-1.46-1.46c0-10.12.12-20.23.19-30.35v0a1.25,1.25,0,0,1,1.26-1.24h0l15.57.2,15.57.26,15.57.36c5.19.12,10.38.26,15.57.44-5.19.19-10.38.33-15.57.44l-15.57.36-15.57.26-15.57.2,1.27-1.27c.07,10.12.19,20.23.19,30.35l-1.46-1.46,15.75,0,15.75,0c10.5,0,21,.12,31.51.19s21,.25,31.51.46c5.25.08,10.5.25,15.75.36S267,393.08,272.28,393.27Z"/><path class="cls-1" d="M414.13,362.92c6.12-.2,12.25-.34,18.37-.47s12.25-.29,18.37-.37l18.37-.26,18.37-.19a1.29,1.29,0,0,1,1.3,1.27h0v0l.11,15.18.05,15.18a1.46,1.46,0,0,1-1.45,1.46h0l-17,0-17,0c-11.34,0-22.68-.13-34-.19s-22.68-.25-34-.46l-17-.36c-5.67-.12-11.34-.26-17-.44,5.67-.19,11.34-.32,17-.44l17-.36c11.34-.2,22.68-.33,34-.46s22.68-.19,34-.19l17,0,17,0-1.46,1.46.05-15.18.11-15.18,1.3,1.3L469.24,364l-18.37-.26c-6.12-.08-12.25-.24-18.37-.37S420.25,363.12,414.13,362.92Z"/><path class="cls-1" d="M477.34,409.38l-12.69.49-13,.43-13.17.33-13.26.18a1.41,1.41,0,0,1-1.43-1.39h0v0l-.07-15.75a1.49,1.49,0,0,1,1.49-1.5h0l13,.05c4.34,0,8.68.1,13,.14s8.68.16,13,.24l13,.37h0a.67.67,0,0,1,.65.68h0c-.1,2.7-.19,5.4-.33,8Zm0,0-.69-15.75.69.69-13,.37c-4.34.08-8.68.21-13,.24s-8.68.13-13,.14l-13,.05,1.5-1.5-.07,15.75-1.43-1.43,12.79.18,12.88.33,13.07.43Z"/><path class="cls-1" d="M207.18,409.38l-12.69.49-13,.43-13.17.33-13.26.18a1.41,1.41,0,0,1-1.43-1.39h0v0l-.07-15.75a1.49,1.49,0,0,1,1.49-1.5h0l13,.05c4.34,0,8.68.1,13,.14s8.68.16,13,.24l13,.37h0a.67.67,0,0,1,.65.68h0c-.1,2.7-.19,5.4-.33,8Zm0,0-.69-15.75.69.69-13,.37c-4.34.08-8.68.21-13,.24s-8.68.13-13,.14l-13,.05,1.5-1.5-.07,15.75-1.43-1.43,12.79.18,12.88.33,13.07.43Z"/><path class="cls-1" d="M471.34,268.29l-22.89,26.88L425,322.33a1.13,1.13,0,0,1-1.6.12h0l0,0q-6.73-5.81-13.43-11.67L396.6,299,369.9,275.52a1.5,1.5,0,0,1-.13-2.11h0l23.64-26.59,11.87-13.25q5.92-6.64,11.91-13.21l0,0a1.14,1.14,0,0,1,1.61-.08h0l26.53,24.13Zm0,0L444,245,417.3,222l1.63-.1q-5.81,6.74-11.67,13.43L395.54,248.7,372,275.39l-.13-2.12,26.58,23.65,13.25,11.87q6.64,5.92,13.21,11.91l-1.62.1,23.75-26.11Z"/><path class="cls-1" d="M397.55,298q-5.19,3.29-10.42,6.5l-10.46,6.44-10.5,6.36-10.54,6.3a1.19,1.19,0,0,1-1.63-.41h0l0,0-7.4-12.51q-3.7-6.26-7.35-12.55l-7.31-12.57-7.23-12.61h0a1.45,1.45,0,0,1,.54-2q6.64-3.83,13.32-7.58l13.36-7.51,13.4-7.44q6.71-3.7,13.46-7.33l0,0a.53.53,0,0,1,.71.21l3.93,7.29c1.32,2.42,2.58,4.88,3.88,7.32-1.47-2.34-3-4.66-4.4-7l-4.35-7,.74.2q-6.51,4-13.08,8l-13.14,7.89-13.19,7.81q-6.6,3.9-13.22,7.75l.53-2L334.51,284l7.23,12.61q3.63,6.3,7.19,12.64l7.14,12.67-1.65-.44,10.73-6,10.76-5.92,10.81-5.84Q392.11,300.85,397.55,298Z"/><path class="cls-2" d="M390.87,351.86H218.93a1.91,1.91,0,0,0-1.91,1.91v13.59a1.91,1.91,0,0,0,1.91,1.91h22.85v11.68a1.91,1.91,0,0,0,1.91,1.91h40.52a13.35,13.35,0,0,0,0,19.1H260.64a1.91,1.91,0,0,0-1.91,1.91v15.92a1.91,1.91,0,0,0,1.91,1.91h15.72a1.91,1.91,0,0,0,1.91-1.86l.09-3.24H331l.15,3.27a1.91,1.91,0,0,0,1.91,1.82h16.08a1.91,1.91,0,0,0,1.91-1.91V403.87a1.91,1.91,0,0,0-1.91-1.91H325.59a13.35,13.35,0,0,0,0-19.1h40.52a1.91,1.91,0,0,0,1.91-1.91V369.27h22.85a1.91,1.91,0,0,0,1.91-1.91V353.77A1.91,1.91,0,0,0,390.87,351.86Z"/><path class="cls-3" d="M347.92,420.21l-16.08.45a.44.44,0,0,1-.45-.41v0l-.36-5.09.58.55q-7,.19-14.08.3l-14.08.22q-14.08.21-28.17.28l1.38-1.34-.1,5.1a1.41,1.41,0,0,1-1.4,1.38h0l-15.72,0a1.47,1.47,0,0,1-1.47-1.46h0l0-15.92a1.48,1.48,0,0,1,1.48-1.49h0l22.13.07,22.13.18,22.13.31q11.06.17,22.13.48h0a.44.44,0,0,1,.43.45h0Zm0,0-.45-15.92.45.45q-11.06.29-22.13.48l-22.13.31-22.13.18-22.13.07,1.49-1.49,0,15.92-1.47-1.47,15.72,0-1.42,1.38.18-5.09v0a1.38,1.38,0,0,1,1.38-1.32q14.08.09,28.17.28l14.08.22q7,.11,14.08.3h0a.57.57,0,0,1,.55.55l.11,5.1-.45-.43Z"/><path class="cls-3" d="M364.87,381.37l-30.23.55-30.57.44-15.35.21-15.41.13q-15.41.14-30.86.14a1.47,1.47,0,0,1-1.47-1.47h0l0-13.59a1.5,1.5,0,0,1,1.49-1.5h0l30.6.06,30.6.2,30.6.37c10.2.09,20.4.35,30.6.54h0a.32.32,0,0,1,.32.33h0Zm0,0-.33-13.59.33.33c-10.2.19-20.4.45-30.6.54l-30.6.37-30.6.2-30.6.06,1.5-1.5,0,13.59-1.47-1.47q15.17,0,30.35.14l15.2.13,15.25.21,30.64.44Z"/><path class="cls-3" d="M315,404.29l-7.33.06-7.34.15-7.33.24a12.33,12.33,0,0,1-12.89-15.56,12.71,12.71,0,0,1,4.51-6.69,13,13,0,0,1,7.7-2.62c4.89,0,9.78.07,14.67.2l7.34.24c.59,0,1.27.07,1.93.13a13.67,13.67,0,0,1,1.94.44,12.09,12.09,0,0,1,8,15.28A11.82,11.82,0,0,1,315,404.29Zm0,0a11.46,11.46,0,0,0,6.8-2.32,11.19,11.19,0,0,0,4-5.91,11.05,11.05,0,0,0-.44-7,10.83,10.83,0,0,0-4.46-5.18,10.44,10.44,0,0,0-3.15-1.24,11.82,11.82,0,0,0-1.66-.24c-.56,0-1.1,0-1.73,0l-7.34.24c-4.89.14-9.78.18-14.67.2a10.31,10.31,0,0,0-9.75,7,10.48,10.48,0,0,0,0,6.48,10.62,10.62,0,0,0,3.9,5.39,11.11,11.11,0,0,0,6.56,2.06l7.33.24,7.34.15Z"/><path class="cls-3" d="M389.63,367.78l-42.6.56-43,.44-21.55.21-21.6.09-43.23.15a1.45,1.45,0,0,1-1.46-1.45h0l0-13.59a1.49,1.49,0,0,1,1.49-1.5h0l86,.28,43,.38c14.33.1,28.66.39,43,.57h0a.25.25,0,0,1,.25.26h0Zm0,0-.26-13.59.26.26c-14.33.19-28.66.47-43,.57l-43,.38-86,.28,1.5-1.5,0,13.59-1.46-1.46,42.73.15,21.38.09,21.44.21,43,.44Z"/><path class="cls-3" d="M313.45,388.26a3.1,3.1,0,0,1,2.5-.68,4.22,4.22,0,0,1,3.53,3.53,3.08,3.08,0,0,1-.68,2.5c-.63-.7-1.08-1.18-1.5-1.6l-1.13-1.13L315,389.76C314.62,389.33,314.14,388.89,313.45,388.26Z"/><path class="cls-1" d="M414,66.06l.55,63.56.25,32,.18,32a1,1,0,0,1-1,1h0l-48.52.25-48.52.11-97,.16a1.5,1.5,0,0,1-1.5-1.49h0l.21-127.57a1.29,1.29,0,0,1,1.29-1.29c16.25,0,32.5.15,48.72.23l48.64.29Zm0,0-97.36.76-48.41.29c-16.12.08-32.22.22-48.32.23l1.29-1.29.21,127.57-1.5-1.5,97,.16,48.52.11,48.52.25-1,1,.18-31.74.25-31.82Z"/><path class="cls-1" d="M310.9,80.8l.5,21.65c.19,7.29.34,14.67.45,22.06a.93.93,0,0,1-.92.95h0l-19.47.25-19.47.16c-13,.12-26,.1-38.95.14a1.49,1.49,0,0,1-1.5-1.49h0l0-21.86.12-21.86h0A1.32,1.32,0,0,1,233,79.47q9.86.05,19.69.2l19.6.31Zm0,0-39.28.81-19.35.31q-9.65.14-19.26.2l1.33-1.33.12,21.86,0,21.86L233,123c13,0,26,0,38.95.14l19.47.16,19.47.25-.95.95c.11-7.17.25-14.37.45-21.65Z"/><path class="cls-1" d="M310.9,134.81l.5,21.65c.19,7.29.34,14.67.45,22.06a.93.93,0,0,1-.92.95h0l-19.47.25-19.47.16c-13,.12-26,.1-38.95.14a1.49,1.49,0,0,1-1.5-1.49h0l0-21.86.12-21.86h0a1.32,1.32,0,0,1,1.33-1.31q9.86.05,19.69.2l19.6.31Zm0,0-39.28.81-19.35.31q-9.65.14-19.26.2l1.33-1.33.12,21.86,0,21.86L233,177c13,0,26,0,38.95.14l19.47.16,19.47.25-.95.95c.11-7.17.25-14.37.45-21.65Z"/><path class="cls-1" d="M400.7,80.8l.5,21.65c.19,7.29.34,14.67.45,22.06a.93.93,0,0,1-.92.95h0l-19.47.25-19.47.16c-13,.12-26,.1-38.95.14a1.49,1.49,0,0,1-1.5-1.49h0l0-21.86.12-21.86h0a1.32,1.32,0,0,1,1.33-1.31q9.86.05,19.69.2l19.6.31Zm0,0-39.28.81-19.35.31q-9.65.14-19.26.2l1.33-1.33.12,21.86,0,21.86-1.5-1.5c13,0,26,0,38.95.14l19.47.16,19.47.25-.95.95c.11-7.17.25-14.37.45-21.65Z"/><path class="cls-1" d="M400.7,134.81l.5,21.65c.19,7.29.34,14.67.45,22.06a.93.93,0,0,1-.92.95h0l-19.47.25-19.47.16c-13,.12-26,.1-38.95.14a1.49,1.49,0,0,1-1.5-1.49h0l0-21.86.12-21.86h0a1.32,1.32,0,0,1,1.33-1.31q9.86.05,19.69.2l19.6.31Zm0,0-39.28.81-19.35.31q-9.65.14-19.26.2l1.33-1.33.12,21.86,0,21.86-1.5-1.5c13,0,26,0,38.95.14l19.47.16,19.47.25-.95.95c.11-7.17.25-14.37.45-21.65Z"/></svg>