<svg id="Ebene_1" data-name="Ebene 1" xmlns="http://www.w3.org/2000/svg" xmlns:xlink="http://www.w3.org/1999/xlink" viewBox="0 0 586.54 450.04"><defs><style>.cls-1{fill:#fff;}.cls-2{fill:url(#Unbenannter_Verlauf_27);}.cls-3{fill:url(#Unbenannter_Verlauf_27-2);}.cls-4{fill:url(#Unbenannter_Verlauf_27-3);}</style><linearGradient id="Unbenannter_Verlauf_27" x1="242.33" y1="360.23" x2="348.4" y2="360.23" gradientUnits="userSpaceOnUse"><stop offset="0" stop-color="#c2ff5a" stop-opacity="0"/><stop offset="0.23" stop-color="#b8f88d"/><stop offset="0.44" stop-color="#aff2b7"/><stop offset="0.66" stop-color="#a7eddd"/><stop offset="0.78" stop-color="#a4ebeb"/><stop offset="0.88" stop-color="#a2e9f7" stop-opacity="0.53"/><stop offset="1" stop-color="#a0e8ff" stop-opacity="0"/></linearGradient><linearGradient id="Unbenannter_Verlauf_27-2" x1="253.65" y1="306.14" x2="280.77" y2="306.14" xlink:href="#Unbenannter_Verlauf_27"/><linearGradient id="Unbenannter_Verlauf_27-3" x1="246.67" y1="326.88" x2="264.42" y2="326.88" xlink:href="#Unbenannter_Verlauf_27"/></defs><title>hub</title><path class="cls-1" d="M133.18,222.13c.62,11.43.95,22.86,1.17,34.29.14,5.72.17,11.43.25,17.15l.08,17.15-.08,17.15c-.08,5.72-.11,11.43-.25,17.15-.22,11.43-.55,22.86-1.17,34.29-.62-11.43-1-22.86-1.17-34.29-.14-5.72-.17-11.43-.25-17.15l-.08-17.15.08-17.15c.08-5.72.11-11.43.25-17.15C132.24,245,132.56,233.56,133.18,222.13Z"/><path class="cls-1" d="M198.59,258.73q-.87-21.67-1.17-43.33c-.14-7.22-.17-14.44-.25-21.67l-.08-21.67.08-21.67c.08-7.22.11-14.44.25-21.67q.29-21.67,1.17-43.33.87,21.67,1.17,43.33c.14,7.22.17,14.44.25,21.67l.08,21.67L200,193.73c-.08,7.22-.11,14.44-.25,21.67Q199.46,237.06,198.59,258.73Z"/><path class="cls-1" d="M433,328.4q-.87-22.92-1.17-45.85c-.14-7.64-.17-15.28-.25-22.92l-.08-22.92.08-22.92c.08-7.64.11-15.28.25-22.92q.29-22.92,1.17-45.85.87,22.92,1.17,45.85c.14,7.64.17,15.28.25,22.92l.08,22.92-.08,22.92c-.08,7.64-.11,15.28-.25,22.92Q433.85,305.48,433,328.4Z"/><path class="cls-1" d="M110.1,290c1.73-2.19,3.55-4.29,5.37-6.39s3.68-4.16,5.57-6.19,3.8-4,5.7-6.06,3.88-4,5.82-5.94a1.48,1.48,0,0,1,2.09,0h0l6,6.11c2,2.08,4,4.12,5.89,6.24s3.86,4.23,5.76,6.38,3.76,4.33,5.54,6.6c-2.26-1.78-4.42-3.67-6.6-5.54s-4.28-3.81-6.38-5.76-4.16-3.93-6.24-5.89l-6.11-6h2.11c-2,1.94-3.94,3.9-5.94,5.82s-4,3.84-6.06,5.7-4.11,3.74-6.19,5.57S112.29,288.24,110.1,290Z"/><path class="cls-1" d="M110.1,244.51c1.73-2.19,3.55-4.29,5.37-6.39s3.68-4.16,5.57-6.19,3.8-4,5.7-6.06,3.88-4,5.82-5.94a1.48,1.48,0,0,1,2.09,0h0l6,6.11c2,2.08,4,4.12,5.89,6.24s3.86,4.23,5.76,6.38,3.76,4.33,5.54,6.6c-2.26-1.78-4.42-3.67-6.6-5.54s-4.28-3.81-6.38-5.76-4.16-3.93-6.24-5.89l-6.11-6h2.11c-2,1.94-3.94,3.9-5.94,5.82s-4,3.84-6.06,5.7-4.11,3.74-6.19,5.57S112.29,242.78,110.1,244.51Z"/><path class="cls-1" d="M155.61,156c3.32-3.25,6.71-6.41,10.11-9.56s6.84-6.26,10.3-9.34,6.94-6.14,10.41-9.21l10.52-9.08a1.49,1.49,0,0,1,1.94,0l10.87,9.35c3.58,3.17,7.2,6.29,10.75,9.49s7.11,6.4,10.63,9.63,7,6.51,10.43,9.87c-3.86-2.84-7.62-5.79-11.4-8.73s-7.49-5.95-11.2-9-7.38-6.08-11.08-9.11l-11-9.25h1.94l-10.63,8.95c-3.57,2.95-7.13,5.92-10.74,8.82s-7.22,5.81-10.86,8.69S159.34,153.28,155.61,156Z"/><path class="cls-1" d="M155.61,121.45c3.32-3.25,6.71-6.41,10.11-9.56s6.84-6.26,10.3-9.34,6.94-6.14,10.41-9.21l10.52-9.08a1.49,1.49,0,0,1,1.94,0l10.87,9.35c3.58,3.17,7.2,6.29,10.75,9.49s7.11,6.4,10.63,9.63,7,6.51,10.43,9.87c-3.86-2.84-7.62-5.79-11.4-8.73s-7.49-5.95-11.2-9-7.38-6.08-11.08-9.11l-11-9.25h1.94l-10.63,8.95c-3.57,2.95-7.13,5.92-10.74,8.82s-7.22,5.81-10.86,8.69S159.34,118.69,155.61,121.45Z"/><path class="cls-1" d="M398.22,179.22c2.62-3.08,5.33-6.07,8-9.06s5.47-5.94,8.25-8.86,5.58-5.83,8.38-8.73l8.49-8.62a1.48,1.48,0,0,1,2.1,0l0,0,8.78,8.87c2.88,3,5.81,6,8.65,9s5.7,6.07,8.52,9.13,5.6,6.17,8.3,9.35c-3.18-2.7-6.26-5.51-9.35-8.3s-6.12-5.65-9.13-8.52-6-5.77-9-8.65l-8.87-8.78h2.11l-8.62,8.49c-2.9,2.8-5.78,5.62-8.73,8.38s-5.89,5.52-8.86,8.25S401.3,176.6,398.22,179.22Z"/><path class="cls-1" d="M398.22,222.95c2.62-3.08,5.33-6.07,8-9.06s5.47-5.94,8.25-8.86,5.58-5.83,8.38-8.73l8.49-8.62a1.48,1.48,0,0,1,2.1,0l0,0,8.78,8.87c2.88,3,5.81,6,8.65,9s5.7,6.07,8.52,9.13,5.6,6.17,8.3,9.35c-3.18-2.7-6.26-5.51-9.35-8.3s-6.12-5.65-9.13-8.52-6-5.77-9-8.65l-8.87-8.78h2.11l-8.62,8.49c-2.9,2.8-5.78,5.62-8.73,8.38s-5.89,5.52-8.86,8.25S401.3,220.33,398.22,222.95Z"/><path class="cls-1" d="M398.22,245.75c2.62-3.08,5.33-6.07,8-9.06s5.47-5.94,8.25-8.86,5.58-5.83,8.38-8.73l8.49-8.62a1.48,1.48,0,0,1,2.1,0l0,0,8.78,8.87c2.88,3,5.81,6,8.65,9s5.7,6.07,8.52,9.13,5.6,6.17,8.3,9.35c-3.18-2.7-6.26-5.51-9.35-8.3s-6.12-5.65-9.13-8.52-6-5.77-9-8.65l-8.87-8.78h2.11l-8.62,8.49c-2.9,2.8-5.78,5.62-8.73,8.38s-5.89,5.52-8.86,8.25S401.3,243.13,398.22,245.75Z"/><path class="cls-1" d="M466.84,72.75a27.36,27.36,0,0,0-8.92,1.54A26.23,26.23,0,0,0,450,78.71l-.1-.28a31.85,31.85,0,0,1,8.49,1,29.49,29.49,0,0,1,7.83,3.6,27.58,27.58,0,0,1,6.4,5.87,30.9,30.9,0,0,1,2.49,3.61l1,2c.35.65.56,1.35.85,2a27.49,27.49,0,0,1,1.82,8.63,26.87,26.87,0,0,1-1,8.82,28.49,28.49,0,0,1-9.77,14.68l-.94-2.68A26.63,26.63,0,0,0,486,80.85a26.89,26.89,0,0,0-8.73-6A27.49,27.49,0,0,0,466.84,72.75Zm0,0a28.11,28.11,0,0,1,11.32,53.87,29,29,0,0,1-11,2.37,1.5,1.5,0,0,1-1.52-1.47,1.51,1.51,0,0,1,.58-1.21,26.71,26.71,0,0,0,9-13.08,26.36,26.36,0,0,0,1.16-8,25.3,25.3,0,0,0-1.26-8c-.24-.64-.39-1.32-.69-1.93l-.84-1.88a29.29,29.29,0,0,0-2.17-3.51,26.27,26.27,0,0,0-5.81-5.9,28.62,28.62,0,0,0-7.39-3.87,28.12,28.12,0,0,0-8.3-1.35h0a.16.16,0,0,1-.09-.28,28.67,28.67,0,0,1,8-4.26A27.4,27.4,0,0,1,466.84,72.75Z"/><path class="cls-1" d="M499.19,193.66a6.27,6.27,0,0,1,1.18,2.25,8,8,0,0,1,.32,2.25,7.84,7.84,0,0,1-.32,2.25,6.21,6.21,0,0,1-1.18,2.25A6.21,6.21,0,0,1,498,200.4a7.84,7.84,0,0,1-.32-2.25,8,8,0,0,1,.32-2.25A6.27,6.27,0,0,1,499.19,193.66Z"/><path class="cls-1" d="M495.29,198.15a5.14,5.14,0,0,1,1.92-1.18,5.92,5.92,0,0,1,1.92-.32,5.81,5.81,0,0,1,1.92.32,5.09,5.09,0,0,1,1.92,1.18,5.09,5.09,0,0,1-1.92,1.18,5.81,5.81,0,0,1-1.92.32,5.92,5.92,0,0,1-1.92-.32A5.14,5.14,0,0,1,495.29,198.15Z"/><path class="cls-1" d="M99.66,184.24a6.27,6.27,0,0,1,1.18,2.25,8,8,0,0,1,.32,2.25,7.84,7.84,0,0,1-.32,2.25,6.21,6.21,0,0,1-1.18,2.25A6.21,6.21,0,0,1,98.49,191a7.84,7.84,0,0,1-.32-2.25,8,8,0,0,1,.32-2.25A6.27,6.27,0,0,1,99.66,184.24Z"/><path class="cls-1" d="M95.76,188.73a5.14,5.14,0,0,1,1.92-1.18,5.91,5.91,0,0,1,1.92-.32,5.81,5.81,0,0,1,1.92.32,5.09,5.09,0,0,1,1.92,1.18,5.09,5.09,0,0,1-1.92,1.18,5.81,5.81,0,0,1-1.92.32,5.92,5.92,0,0,1-1.92-.32A5.14,5.14,0,0,1,95.76,188.73Z"/><path class="cls-1" d="M67.56,131.76A6.27,6.27,0,0,1,68.73,134a8,8,0,0,1,.32,2.25,7.84,7.84,0,0,1-.32,2.25,6.21,6.21,0,0,1-1.18,2.25,6.21,6.21,0,0,1-1.18-2.25,7.84,7.84,0,0,1-.32-2.25,8,8,0,0,1,.32-2.25A6.27,6.27,0,0,1,67.56,131.76Z"/><path class="cls-1" d="M63.66,136.25a5.14,5.14,0,0,1,1.92-1.18,5.92,5.92,0,0,1,1.92-.32,5.81,5.81,0,0,1,1.92.32,5.09,5.09,0,0,1,1.92,1.18,5.09,5.09,0,0,1-1.92,1.18,5.81,5.81,0,0,1-1.92.32,5.92,5.92,0,0,1-1.92-.32A5.14,5.14,0,0,1,63.66,136.25Z"/><path class="cls-1" d="M222.37,52.69a6.27,6.27,0,0,1,1.18,2.25,8,8,0,0,1,.32,2.25,7.84,7.84,0,0,1-.32,2.25,6.21,6.21,0,0,1-1.18,2.25,6.21,6.21,0,0,1-1.18-2.25,7.84,7.84,0,0,1-.32-2.25,8,8,0,0,1,.32-2.25A6.27,6.27,0,0,1,222.37,52.69Z"/><path class="cls-1" d="M218.47,57.18A5.14,5.14,0,0,1,220.39,56a5.92,5.92,0,0,1,1.92-.32,5.81,5.81,0,0,1,1.92.32,5.09,5.09,0,0,1,1.92,1.18,5.09,5.09,0,0,1-1.92,1.18,5.81,5.81,0,0,1-1.92.32,5.92,5.92,0,0,1-1.92-.32A5.14,5.14,0,0,1,218.47,57.18Z"/><path class="cls-1" d="M362.4,107.92a6.27,6.27,0,0,1,1.18,2.25,8,8,0,0,1,.32,2.25,7.84,7.84,0,0,1-.32,2.25,6.21,6.21,0,0,1-1.18,2.25,6.21,6.21,0,0,1-1.18-2.25,7.84,7.84,0,0,1-.32-2.25,8,8,0,0,1,.32-2.25A6.27,6.27,0,0,1,362.4,107.92Z"/><path class="cls-1" d="M358.5,112.41a5.14,5.14,0,0,1,1.92-1.18,5.92,5.92,0,0,1,1.92-.32,5.81,5.81,0,0,1,1.92.32,5.09,5.09,0,0,1,1.92,1.18,5.09,5.09,0,0,1-1.92,1.18,5.81,5.81,0,0,1-1.92.32,5.92,5.92,0,0,1-1.92-.32A5.14,5.14,0,0,1,358.5,112.41Z"/><path class="cls-2" d="M336.58,393.33H311.69a34.41,34.41,0,0,0,10.74-8.64A43,43,0,0,0,332,357.08c0-19.71-7.71-37.81-8-38.57a1.89,1.89,0,0,0-3.58.31c-1.26,5.28-4.89,15.53-9.05,18.12-2.53-27.92-21.63-37.57-22.47-38a1.89,1.89,0,0,0-2.72,1.73c0,.07,0,7-5.3,16.72-1.72,3.16-4.92,6.24-8.3,9.51-7.22,7-16.2,15.65-16.2,30.33a39.46,39.46,0,0,0,22.38,36.09H254.15c-6.52,0-11.82,6.36-11.82,14.18s5.3,14.18,11.82,14.18h82.43c6.52,0,11.82-6.36,11.82-14.18S343.1,393.33,336.58,393.33Z"/><path class="cls-3" d="M254.92,307.93a19.11,19.11,0,0,1,6.35,4.16,19.37,19.37,0,0,1,4.16,6.36,1.89,1.89,0,0,0,1.78,1.26h0a1.89,1.89,0,0,0,1.78-1.31,17.82,17.82,0,0,1,4.14-6.31,18.17,18.17,0,0,1,6.31-4.14,1.89,1.89,0,0,0-.06-3.62A18.68,18.68,0,0,1,269,294a1.89,1.89,0,0,0-3.57-.2,18.58,18.58,0,0,1-10.63,10.63,1.89,1.89,0,0,0,.09,3.54Z"/><path class="cls-4" d="M253.76,334.5a1.89,1.89,0,0,0,1.78,1.26h0a1.89,1.89,0,0,0,1.78-1.31,10.06,10.06,0,0,1,2.3-3.48,10.18,10.18,0,0,1,3.48-2.3,1.9,1.9,0,0,0,0-3.61,10.48,10.48,0,0,1-5.71-5.69,1.89,1.89,0,0,0-3.57-.2,10.37,10.37,0,0,1-6,6,1.89,1.89,0,0,0,.08,3.53,10.39,10.39,0,0,1,5.84,5.84Z"/><path class="cls-1" d="M345.41,408a15.29,15.29,0,0,1-2.39,8.34,11.11,11.11,0,0,1-3.15,3.2,9,9,0,0,1-4.39,1.5,9.23,9.23,0,0,1-4.69-1,11.34,11.34,0,0,1-3.72-3.08,14.87,14.87,0,0,1,0-18,11.27,11.27,0,0,1,3.72-3.08,9.21,9.21,0,0,1,4.69-1,10,10,0,0,1,7.54,4.71A15.3,15.3,0,0,1,345.41,408Zm0,0a13.12,13.12,0,0,0-2.73-8.09,9.77,9.77,0,0,0-3.26-2.66,7.69,7.69,0,0,0-3.94-.79,8.5,8.5,0,0,0-6.32,4.08,14.27,14.27,0,0,0,0,14.91,8.49,8.49,0,0,0,6.33,4.09,7.69,7.69,0,0,0,3.95-.79,9.75,9.75,0,0,0,3.26-2.66A13.13,13.13,0,0,0,345.41,408Z"/><path class="cls-1" d="M335.48,395.69q-25,.87-50,1.17c-8.33.14-16.65.17-25,.25l-6.25,0h-.78a7,7,0,0,0-.72,0c-.21,0-.43,0-.64,0l-.63.12a7.9,7.9,0,0,0-2.36,1,10.13,10.13,0,0,0-2,1.82,11.73,11.73,0,0,0-1.43,2.34,13.5,13.5,0,0,0,0,10.88,11.72,11.72,0,0,0,1.43,2.34,10.13,10.13,0,0,0,2,1.82,7.89,7.89,0,0,0,2.36,1l.63.12c.21,0,.43,0,.64,0a7,7,0,0,0,.72,0h.78l6.25,0c8.33.08,16.65.11,25,.25q25,.29,50,1.17-25,.87-50,1.17c-8.33.14-16.65.17-25,.25l-6.25,0h-.78c-.26,0-.51,0-.84,0s-.61,0-.92-.07l-.9-.17a10.8,10.8,0,0,1-3.33-1.45,13,13,0,0,1-2.62-2.4,14.66,14.66,0,0,1-1.83-3,16.12,16.12,0,0,1,0-13.36,14.68,14.68,0,0,1,1.83-3,13,13,0,0,1,2.62-2.4,10.81,10.81,0,0,1,3.32-1.45l.9-.17c.3,0,.61,0,.92-.07s.58,0,.84,0h.78l6.25,0c8.33.08,16.65.11,25,.25Q310.5,394.82,335.48,395.69Z"/><path class="cls-1" d="M243.88,412.69a11.34,11.34,0,0,1,3.32-1.18,17.09,17.09,0,0,1,3.32-.32,16.79,16.79,0,0,1,3.32.32,11.21,11.21,0,0,1,3.32,1.18,11.21,11.21,0,0,1-3.32,1.18,16.79,16.79,0,0,1-3.32.32,17.09,17.09,0,0,1-3.32-.32A11.34,11.34,0,0,1,243.88,412.69Z"/><path class="cls-1" d="M283.63,404.52a14.68,14.68,0,0,1-3.86,1.18,23.05,23.05,0,0,1-3.86.32,22.64,22.64,0,0,1-3.86-.32,14.51,14.51,0,0,1-3.86-1.18,14.51,14.51,0,0,1,3.86-1.18,22.64,22.64,0,0,1,3.86-.32,23.05,23.05,0,0,1,3.86.32A14.68,14.68,0,0,1,283.63,404.52Z"/><path class="cls-1" d="M325.11,408.74a11.57,11.57,0,0,1-3.36,1.18,17.49,17.49,0,0,1-3.36.32,17.18,17.18,0,0,1-3.36-.32,11.43,11.43,0,0,1-3.36-1.18,11.43,11.43,0,0,1,3.36-1.18,17.18,17.18,0,0,1,3.36-.32,17.49,17.49,0,0,1,3.36.32A11.57,11.57,0,0,1,325.11,408.74Z"/><path class="cls-1" d="M321.14,319.73a102,102,0,0,1,4.66,13,109.49,109.49,0,0,1,3,13.56,72,72,0,0,1,.91,13.92A44.19,44.19,0,0,1,326.81,374,38.75,38.75,0,0,1,319.45,386a33.24,33.24,0,0,1-11.55,8.29,35,35,0,0,1-14,2.66,37.74,37.74,0,0,1-14-2.76,38.74,38.74,0,0,1-20.36-19.32,39.78,39.78,0,0,1-3.72-13.79,33.22,33.22,0,0,1,1.7-14.25A38.63,38.63,0,0,1,265,334.7c3.1-3.56,6.61-6.66,9.82-9.87a41.18,41.18,0,0,0,4.4-5,39.23,39.23,0,0,0,3.14-5.87,47.23,47.23,0,0,0,2.31-6.32c.31-1.07.56-2.16.76-3.26a22,22,0,0,0,.38-3.22V301a1.09,1.09,0,0,1,1.12-1.06,1.11,1.11,0,0,1,.51.14,37,37,0,0,1,9.23,7.53,45.84,45.84,0,0,1,6.72,9.67c.47.86.83,1.78,1.25,2.66l.61,1.34.5,1.38c.32.92.67,1.84,1,2.77l.74,2.84.36,1.42.24,1.44.48,2.89c.25,1.93.33,3.88.5,5.82l-.54-.49c1.88,0,3.59-1.37,4.88-2.89a26,26,0,0,0,3.32-5.16A66.24,66.24,0,0,0,321.14,319.73Zm0,0c-.46,2-1,4-1.65,6a50.74,50.74,0,0,1-2.25,5.84A26.69,26.69,0,0,1,314,337a11.17,11.17,0,0,1-2.33,2.24,6.16,6.16,0,0,1-3.14,1.16A.51.51,0,0,1,308,340v0c-.24-1.9-.39-3.81-.7-5.69l-.57-2.8-.29-1.4-.4-1.37-.79-2.74c-.31-.89-.67-1.77-1-2.66l-.51-1.33-.62-1.28c-.42-.85-.8-1.72-1.26-2.54a43.94,43.94,0,0,0-6.65-9.12,40.61,40.61,0,0,0-4.15-3.81,31.31,31.31,0,0,0-4.61-3l1.63-1a23.48,23.48,0,0,1-.33,3.66c-.19,1.18-.43,2.35-.74,3.49a45.41,45.41,0,0,1-2.31,6.71,41.36,41.36,0,0,1-3.32,6.34,43.67,43.67,0,0,1-4.63,5.43c-3.28,3.34-6.66,6.41-9.58,9.84a35.76,35.76,0,0,0-6.89,11.28,30.25,30.25,0,0,0-1.48,13,38,38,0,0,0,3.44,12.77,36,36,0,0,0,18.75,18,35,35,0,0,0,13,2.71,32.57,32.57,0,0,0,13-2.31,30.87,30.87,0,0,0,10.9-7.47A36.7,36.7,0,0,0,325,373.28a42.45,42.45,0,0,0,3.07-13.14,77.77,77.77,0,0,0-.45-13.67,108.62,108.62,0,0,0-2.48-13.54A115.47,115.47,0,0,0,321.14,319.73Z"/><path class="cls-1" d="M286.95,386.59a21.37,21.37,0,0,1-9.37-2.72,25.1,25.1,0,0,1-12.09-15.3,21.45,21.45,0,0,1-.48-9.75,44.75,44.75,0,0,0,2.69,9,34.81,34.81,0,0,0,11.13,14.1A43.77,43.77,0,0,0,286.95,386.59Z"/><path class="cls-1" d="M319.34,371a9.73,9.73,0,0,1-.86,4,13.6,13.6,0,0,1-5.12,6,9.67,9.67,0,0,1-3.77,1.46,27.07,27.07,0,0,1,2.2-3.22c.76-1,1.52-1.9,2.3-2.81s1.58-1.8,2.42-2.7A27.88,27.88,0,0,1,319.34,371Z"/><path class="cls-1" d="M265.62,318.28a23.2,23.2,0,0,0-2.3-3.54,21.38,21.38,0,0,0-2.83-3,21.84,21.84,0,0,0-6.93-4,1.15,1.15,0,0,1-.15-2.13l.1,0a30.3,30.3,0,0,0,3.47-2,18.66,18.66,0,0,0,3-2.51,20.25,20.25,0,0,0,2.38-3.11,24.89,24.89,0,0,0,1.84-3.51,1.5,1.5,0,0,1,2.82.12v0a12.07,12.07,0,0,0,.71,1.69,18.08,18.08,0,0,0,1,1.7,22.15,22.15,0,0,0,2.48,3.09,21,21,0,0,0,3,2.61,19.42,19.42,0,0,0,1.68,1.05,12.58,12.58,0,0,0,1.7.82l.12,0a1.16,1.16,0,0,1-.07,2.2,18.25,18.25,0,0,0-3.59,1.64,20.83,20.83,0,0,0-3.31,2.37,22,22,0,0,0-2.85,3A20.76,20.76,0,0,0,265.62,318.28Zm0,0a18.68,18.68,0,0,1,4.08-7.58,21.91,21.91,0,0,1,3.27-3,18.12,18.12,0,0,1,4-2.22l0,2.24a16,16,0,0,1-4.19-1.94,23.67,23.67,0,0,1-3.55-2.79,22.53,22.53,0,0,1-2.91-3.47,21,21,0,0,1-1.18-2,13.56,13.56,0,0,1-1-2.22l2.83.16a27.56,27.56,0,0,1-2.15,4A20.27,20.27,0,0,1,262,303a21.37,21.37,0,0,1-3.62,2.72,24.06,24.06,0,0,1-4,2l-.05-2.18a19.68,19.68,0,0,1,3.91,2.23,21.24,21.24,0,0,1,3.29,3A19.43,19.43,0,0,1,265.62,318.28Z"/><path class="cls-1" d="M254,334.34a15.73,15.73,0,0,0-1.51-2,13,13,0,0,0-1.76-1.69,12.05,12.05,0,0,0-2-1.29,12.23,12.23,0,0,0-2.11-.89,1.13,1.13,0,0,1-.23-2.09l.18-.09a19,19,0,0,0,2-1.22,11.71,11.71,0,0,0,1.7-1.46,11.47,11.47,0,0,0,1.32-1.79,14.87,14.87,0,0,0,1.05-2,1.5,1.5,0,0,1,2.82.12v0a6.92,6.92,0,0,0,.38.9,10.65,10.65,0,0,0,.55,1,12.59,12.59,0,0,0,1.39,1.78,13.44,13.44,0,0,0,1.69,1.52,11,11,0,0,0,1.85,1.12l.23.1a1.14,1.14,0,0,1-.19,2.14,10.68,10.68,0,0,0-2.08.87,12.23,12.23,0,0,0-2,1.3,13.38,13.38,0,0,0-1.78,1.68A13.84,13.84,0,0,0,254,334.34Zm0,0a10.67,10.67,0,0,1,2.24-4.75,13.3,13.3,0,0,1,2-1.9,10.74,10.74,0,0,1,2.44-1.45l0,2.24a10,10,0,0,1-2.68-1.17,13.62,13.62,0,0,1-2.24-1.71,14.2,14.2,0,0,1-1.84-2.15,12.8,12.8,0,0,1-.74-1.24,8.67,8.67,0,0,1-.61-1.44l2.83.16a16.59,16.59,0,0,1-1.34,2.47,12.91,12.91,0,0,1-1.81,2.2,12.31,12.31,0,0,1-2.29,1.67,14.61,14.61,0,0,1-2.51,1.16l-.05-2.18a11.56,11.56,0,0,1,2.4,1.45,13,13,0,0,1,2,1.89A11.06,11.06,0,0,1,254,334.34Z"/><path class="cls-1" d="M101.08,408.71c8.52-13.73,17.21-27.36,25.8-41l26.07-40.87c8.65-13.65,17.49-27.18,26.24-40.76l26.3-40.72L232,204.75c8.87-13.51,17.64-27.08,26.59-40.53l26.77-40.41c9-13.41,17.94-26.88,27-40.24-8.52,13.73-17.2,27.36-25.8,41l-26.07,40.87c-8.65,13.65-17.49,27.17-26.24,40.76L208,247l-26.53,40.57c-8.86,13.51-17.64,27.08-26.6,40.53l-26.77,40.42C119.09,381.88,110.16,395.35,101.08,408.71Z"/><path class="cls-1" d="M277,83.57c8.91,13.37,17.67,26.84,26.5,40.25l26.24,40.42c8.78,13.45,17.38,27,26.07,40.53l26,40.57L407.54,286c8.57,13.59,17.23,27.11,25.71,40.76l25.53,40.87c8.42,13.68,16.92,27.31,25.27,41-8.92-13.36-17.67-26.83-26.51-40.25L431.3,328c-8.78-13.45-17.38-27-26.06-40.53l-26-40.57-25.77-40.72c-8.57-13.58-17.23-27.11-25.71-40.76L302.23,124.6C293.81,110.92,285.3,97.3,277,83.57Z"/><path class="cls-1" d="M362.34,408.71c11.8-.62,23.59-.95,35.39-1.17,5.9-.14,11.8-.17,17.7-.25l17.7-.08,17.7.08c5.9.08,11.8.11,17.7.25,11.8.22,23.59.55,35.39,1.17-11.8.62-23.59,1-35.39,1.17-5.9.14-11.8.17-17.7.25l-17.7.08-17.7-.08c-5.9-.08-11.8-.11-17.7-.25C385.93,409.66,374.14,409.33,362.34,408.71Z"/><path class="cls-1" d="M82.64,408.71c12-.62,24.06-.95,36.09-1.17,6-.14,12-.17,18-.25l18-.08,18,.08c6,.08,12,.11,18,.25,12,.22,24.06.55,36.09,1.17-12,.62-24.06,1-36.09,1.17-6,.14-12,.17-18,.25l-18,.08-18-.08c-6-.08-12-.11-18-.25C106.7,409.66,94.67,409.33,82.64,408.71Z"/><path class="cls-1" d="M489.62,383.31a38.41,38.41,0,0,1-.25,6.6,64.81,64.81,0,0,1-1.08,6.42,63.67,63.67,0,0,1-1.71,6.28,37.9,37.9,0,0,1-2.55,6.1,37.9,37.9,0,0,1,.24-6.6,63.67,63.67,0,0,1,1.08-6.42,64.8,64.8,0,0,1,1.71-6.28A38.4,38.4,0,0,1,489.62,383.31Z"/><path class="cls-1" d="M484.89,381.9a8.07,8.07,0,0,1,2.88-.51,11.23,11.23,0,0,1,2.68.32,11,11,0,0,1,2.52.95,8,8,0,0,1,2.32,1.78,8,8,0,0,1-2.88.51,11,11,0,0,1-2.68-.33,11.22,11.22,0,0,1-2.52-1A8.07,8.07,0,0,1,484.89,381.9Z"/><path class="cls-1" d="M90.2,381.6a48.77,48.77,0,0,1,3.95,6.33q1.74,3.26,3.17,6.66t2.57,6.91a48.13,48.13,0,0,1,1.78,7.24,48.13,48.13,0,0,1-4-6.33q-1.74-3.26-3.16-6.66T92,388.84A48.77,48.77,0,0,1,90.2,381.6Z"/><path class="cls-1" d="M85.12,382.23a7.07,7.07,0,0,1,1.84-2,9.43,9.43,0,0,1,2.16-1.2,9.26,9.26,0,0,1,2.39-.6,7,7,0,0,1,2.71.2,7,7,0,0,1-1.84,2,9.26,9.26,0,0,1-2.16,1.2,9.43,9.43,0,0,1-2.39.6A7.07,7.07,0,0,1,85.12,382.23Z"/><path class="cls-1" d="M186.21,408.07c4.94-14.58,10.06-29.09,15.09-43.64l15.38-43.53c5.09-14.52,10.38-29,15.57-43.46L247.91,234l15.9-43.34c5.33-14.44,10.54-28.92,16-43.32L296,104.09c5.49-14.38,10.89-28.79,16.47-43.14-4.94,14.58-10.06,29.09-15.08,43.64L282,148.12c-5.09,14.53-10.39,29-15.58,43.46L250.72,235l-15.9,43.34c-5.32,14.44-10.55,28.91-16,43.32l-16.17,43.25C197.18,379.3,191.79,393.72,186.21,408.07Z"/><path class="cls-1" d="M391.84,408.74c-5-14.39-9.87-28.83-14.81-43.25l-14.52-43.34c-4.88-14.44-9.55-28.94-14.32-43.41l-14.25-43.43-14-43.51c-4.64-14.51-9.39-29-13.92-43.54l-13.72-43.6c-4.47-14.57-9-29.1-13.42-43.7,5,14.39,9.88,28.83,14.82,43.25l14.52,43.34c4.88,14.43,9.55,28.94,14.32,43.41l14.25,43.43,14,43.52c4.64,14.51,9.38,29,13.92,43.54L378.42,365C382.89,379.6,387.46,394.14,391.84,408.74Z"/><path class="cls-1" d="M258.63,166.32q3.62.61,7.2,1.35c2.39.47,4.76,1,7.14,1.54l-.28,0c3.47-.14,6.95-.27,10.42-.34s6.95-.08,10.42-.13,6.95,0,10.42.09,6.95.16,10.42.32l-.27,0c2.57-.54,5.16-1.05,7.75-1.53s5.19-.93,7.81-1.3c-2.48.92-5,1.77-7.48,2.58s-5,1.6-7.54,2.35l-.17,0h-.1c-3.47.16-6.95.25-10.42.32s-6.95.08-10.42.09-6.95,0-10.42-.13-6.95-.19-10.42-.34h-.09l-.18,0c-2.31-.78-4.63-1.52-6.92-2.35S260.9,167.22,258.63,166.32Z"/><path class="cls-1" d="M249.17,180.87q4.55.93,9.05,2c3,.69,6,1.45,9,2.19l-.29,0c4.38-.14,8.76-.27,13.14-.33s8.76-.08,13.14-.13,8.76,0,13.14.09,8.76.16,13.14.32l-.28,0c1.63-.39,3.27-.75,4.9-1.11s3.27-.73,4.91-1.07c3.28-.69,6.57-1.36,9.88-1.95-3.16,1.14-6.35,2.2-9.54,3.23-1.59.53-3.19,1-4.79,1.52s-3.2,1-4.8,1.48l-.21,0h-.07c-4.38.16-8.76.24-13.14.32s-8.76.08-13.14.09-8.76,0-13.14-.13-8.76-.19-13.14-.33h-.08a.77.77,0,0,1-.21,0c-2.92-1-5.86-2-8.76-3S252.06,182,249.17,180.87Z"/></svg>