<svg id="Ebene_1" data-name="Ebene 1" xmlns="http://www.w3.org/2000/svg" xmlns:xlink="http://www.w3.org/1999/xlink" viewBox="0 0 999.08 311.29"><defs><style>.cls-1{fill:url(#Unbenannter_Verlauf_27);}.cls-2{fill:none;stroke:#fff;stroke-miterlimit:10;stroke-width:3px;}.cls-3{fill:#fff;}</style><linearGradient id="Unbenannter_Verlauf_27" x1="643.22" y1="709.89" x2="1082.48" y2="709.89" gradientUnits="userSpaceOnUse"><stop offset="0" stop-color="#c2ff5a" stop-opacity="0"/><stop offset="0.23" stop-color="#b8f88d"/><stop offset="0.44" stop-color="#aff2b7"/><stop offset="0.66" stop-color="#a7eddd"/><stop offset="0.78" stop-color="#a4ebeb"/><stop offset="0.88" stop-color="#a2e9f7" stop-opacity="0.53"/><stop offset="1" stop-color="#a0e8ff" stop-opacity="0"/></linearGradient></defs><title>flatfloor</title><path class="cls-1" d="M1047.91,692.36H653.24c-4,27.51-10,35.07-10,35.07h439.26s-8.65-10.62-10-35.07Z" transform="translate(-364.11 -441.38)"/><path class="cls-2" d="M507.42,727.42" transform="translate(-364.11 -441.38)"/><path class="cls-2" d="M627.11,727.42" transform="translate(-364.11 -441.38)"/><path class="cls-3" d="M616,732.33a69.3,69.3,0,0,1-48.59,20.34A69.44,69.44,0,1,1,616,732.33Zm0,0a67.94,67.94,0,0,0,19.92-48.59,68,68,0,1,0-42.23,63.44A68.77,68.77,0,0,0,616,732.33Z" transform="translate(-364.11 -441.38)"/><path class="cls-3" d="M1047.91,692.36c-15.43.27-30.86.41-46.29.61s-30.86.26-46.29.39-30.86.26-46.29.29l-46.29.11V691h1.6v2.8c-17.59,0-35.18.14-52.78.07l-52.78-.13c-17.59,0-35.18-.05-52.78-.22l-52.78-.38.74-.64-.77,4.54-.86,4.52-1,4.5c-.38,1.49-.7,3-1.12,4.47q-1.16,4.46-2.75,8.79a38,38,0,0,1-4,8.33l-.24-.5,28,.31-28,.31h-.58l.34-.51a37.73,37.73,0,0,0,3.73-8.23q1.46-4.32,2.52-8.77c.38-1.47.67-3,1-4.46l.86-4.49.75-4.51.66-4.52.09-.63h.65l52.78-.38c17.59-.16,35.18-.17,52.78-.22l52.78-.13c17.59-.06,35.18.05,52.78.07v2.8h-1.6V691l46.29.11c15.43,0,30.86.2,46.29.29s30.86.17,46.29.39S1032.48,692.09,1047.91,692.36Z" transform="translate(-364.11 -441.38)"/><path class="cls-3" d="M714.2,727.42c6.26-.24,12.52-.38,18.78-.54s12.52-.29,18.77-.38l18.78-.29c6.26-.1,12.52-.08,18.77-.13l18.78-.1c6.26,0,12.52-.08,18.78,0l37.55.2v2.52l-1.73,0v-2.47l109.9.39,109.9.58-.2.43a38.91,38.91,0,0,1-4.36-8.18,68.41,68.41,0,0,1-2.84-8.8,86.11,86.11,0,0,1-1.75-9.07c-.22-1.52-.35-3.06-.54-4.58l-.32-4.6.39,4.6c.2,1.52.36,3.05.6,4.57a86,86,0,0,0,1.88,9,68,68,0,0,0,2.95,8.71,39.59,39.59,0,0,0,4.39,8l.32.42h-.52l-109.9.58-109.9.39v-2.47l1.73,0v2.52l-37.55.2c-6.26.06-12.52,0-18.78,0l-18.78-.1c-6.26,0-12.52,0-18.77-.13l-18.78-.29c-6.26-.09-12.52-.19-18.77-.38S720.46,727.66,714.2,727.42Z" transform="translate(-364.11 -441.38)"/><path class="cls-3" d="M1052.53,445.47a219.89,219.89,0,0,1,36.4,4.65,321.45,321.45,0,0,1,35.43,9.76c23.24,7.84,45.68,17.78,68,27.77,11.18,5,22.29,10,33.6,14.67s22.69,9.12,34.06,13.64,22.74,9.07,34,13.89,22.47,9.86,33.33,15.66a151.86,151.86,0,0,1,15.82,9.63,71.15,71.15,0,0,1,7.31,5.85,34,34,0,0,1,6.18,7.29,20.51,20.51,0,0,1,1.14,2.18l.92,2.17.82,2.21c.26.74.48,1.49.72,2.24a64.43,64.43,0,0,1,2,9.16,101.5,101.5,0,0,1,.78,18.57c-.51,12.34-2.24,24.48-3.5,36.62-.64,6.07-1.21,12.14-1.57,18.23s-.5,12.24-1.27,18.37a94.2,94.2,0,0,1-3.76,18.16,45.51,45.51,0,0,1-8.95,16.35,33.92,33.92,0,0,1-7.2,6.07,39.34,39.34,0,0,1-8.52,3.92,65.93,65.93,0,0,1-9,2.1c-1.51.27-3,.49-4.55.73l-4.57.59a348.38,348.38,0,0,1-36.72,1.72c-12.24.09-24.48-.08-36.71-.25l18.35-.26c6.12-.08,12.23-.17,18.35-.34a358.06,358.06,0,0,0,36.54-2.41l4.52-.64c1.5-.26,3-.49,4.5-.78a64.88,64.88,0,0,0,8.79-2.15,37.53,37.53,0,0,0,8.07-3.82,32,32,0,0,0,6.72-5.8,43.47,43.47,0,0,0,8.36-15.72,92,92,0,0,0,3.47-17.76c.33-3,.53-6,.68-9.08s.21-6.12.4-9.18c.34-6.14.9-12.25,1.51-18.35,1.22-12.19,2.9-24.32,3.35-36.45a98.76,98.76,0,0,0-.82-18.05,61.62,61.62,0,0,0-1.95-8.74c-.23-.71-.44-1.42-.69-2.12l-.78-2.09-.88-2a17.54,17.54,0,0,0-1-1.88,31.2,31.2,0,0,0-5.68-6.63,68.28,68.28,0,0,0-7-5.58,160,160,0,0,0-15.54-9.41c-10.71-5.77-21.83-10.82-33-15.67s-22.55-9.42-33.9-14-22.73-9.07-34-13.78c-5.65-2.36-11.3-4.75-16.87-7.31l-16.68-7.67c-22.21-10.24-44.49-20.37-67.54-28.48a320.33,320.33,0,0,0-35.13-10.36A233.41,233.41,0,0,0,1052.53,445.47Z" transform="translate(-364.11 -441.38)"/><path class="cls-3" d="M490.4,727.42c-18,.14-35.93.43-53.9-.26-4.49-.18-9-.43-13.47-.83s-9-.89-13.41-1.63c-1.12-.16-2.22-.38-3.33-.58s-2.22-.41-3.33-.67a47,47,0,0,1-6.53-2,34.1,34.1,0,0,1-11.54-7.32,38.75,38.75,0,0,1-7.84-11.21,63.35,63.35,0,0,1-4.38-12.9,141.5,141.5,0,0,1-3.09-26.89c-.45-8.94-1.35-17.86-2.36-26.77s-2.15-17.84-2.75-26.85-.66-18.16,1.17-27.16a54.49,54.49,0,0,1,4.4-13.08c2.32-4.22,5.73-7.46,9.23-10.38,7.11-5.78,15-10.28,23-14.52s16.16-8,24.39-11.65c16.47-7.27,33.18-13.9,49.85-20.58,8.34-3.34,16.67-6.67,24.95-10.12,4.14-1.72,8.26-3.47,12.36-5.28l12.29-5.5c16.42-7.3,32.93-14.45,49.7-21A507.55,507.55,0,0,1,627,453a264.67,264.67,0,0,1,53.25-9.29c18-1.1,35.94-1.43,53.91-1.74,35.93-.56,71.86-.65,107.79-.63s71.85.32,107.78.83c-35.93.17-71.85.29-107.77.65s-71.84.63-107.75,1.47q-13.46.31-26.92.78c-9,.3-17.94.65-26.87,1.23a262.05,262.05,0,0,0-52.71,9.33,504.79,504.79,0,0,0-50.87,17.24c-16.69,6.56-33.14,13.72-49.52,21.06L515,499.45c-4.13,1.81-8.27,3.55-12.43,5.27-8.31,3.44-16.66,6.76-25,10.07-16.69,6.64-33.4,13.21-49.81,20.42-8.2,3.61-16.33,7.37-24.25,11.51s-15.69,8.61-22.55,14.16c-3.37,2.79-6.59,5.9-8.61,9.59a52.22,52.22,0,0,0-4.18,12.38c-1.81,8.63-1.84,17.6-1.32,26.5s1.61,17.83,2.54,26.77S371.14,654,371.52,663a139.76,139.76,0,0,0,2.84,26.59,61.71,61.71,0,0,0,4.17,12.59A37.19,37.19,0,0,0,386,713a33.07,33.07,0,0,0,11,7.14,45.69,45.69,0,0,0,6.31,2c1.08.26,2.17.49,3.27.7s2.19.45,3.29.62c4.4.79,8.85,1.36,13.31,1.8s8.93.77,13.41,1c9,.47,17.94.67,26.92.8Z" transform="translate(-364.11 -441.38)"/><path class="cls-2" d="M1100,727.42" transform="translate(-364.11 -441.38)"/><path class="cls-3" d="M1208.33,732.33a67.95,67.95,0,0,0,19.92-48.59A68,68,0,1,0,1186,747.18,68.77,68.77,0,0,0,1208.33,732.33Zm0,0a69.47,69.47,0,0,1-113.42-75.44,69.48,69.48,0,0,1,113.95-22.27,69.44,69.44,0,0,1-.53,97.71Z" transform="translate(-364.11 -441.38)"/></svg>