<svg xmlns="http://www.w3.org/2000/svg" xmlns:xlink="http://www.w3.org/1999/xlink" viewBox="0 0 576.02 49.2"><defs><style>.cls-1{font-size:30px;font-family:SofiaPro-Medium, Sofia Pro;}.cls-1,.cls-2{fill:#fff;}.cls-3{fill:url(#Unbenannter_Verlauf_122);}</style><radialGradient id="Unbenannter_Verlauf_122" cx="495.36" cy="64.28" r="43.92" gradientUnits="userSpaceOnUse"><stop offset="0.25" stop-opacity="0"/><stop offset="0.42" stop-color="#135761" stop-opacity="0.32"/><stop offset="0.63" stop-color="#29bfd4" stop-opacity="0.7"/><stop offset="0.78" stop-color="#49cbb3" stop-opacity="0.88"/><stop offset="0.9" stop-color="#5fd39b"/></radialGradient></defs><title>stufen</title><g id="Ebene_2" data-name="Ebene 2"><text class="cls-1" transform="translate(125.27 34.27)">1</text><path class="cls-2" d="M168.69,67.83a24.33,24.33,0,0,1-24-18.31,23.94,23.94,0,0,1-.71-8.16,25.67,25.67,0,0,1,2-8A25.19,25.19,0,0,1,157,21.5a24.68,24.68,0,0,1,7.81-2.57A24,24,0,0,1,173,19a25.47,25.47,0,0,1,7.73,2.74,24,24,0,0,1,6.36,5.15,24.16,24.16,0,0,1,6.15,14.85,24,24,0,0,1-4.35,15.31c6-9,4.85-21.84-2.52-29.51a23.68,23.68,0,0,0-13.57-7.41,22.87,22.87,0,0,0-7.82,0,23.57,23.57,0,0,0-7.41,2.49A24,24,0,0,0,147,33.87a24,24,0,0,0-1.41,15.41,23.81,23.81,0,0,0,8.34,13.13A24.48,24.48,0,0,0,168.69,67.83Z" transform="translate(-38.52 -18.62)"/><text class="cls-1" transform="translate(15.78 34.27)">0</text><path class="cls-2" d="M63.37,67.83a24.33,24.33,0,0,1-24-18.31,23.94,23.94,0,0,1-.71-8.16,25.67,25.67,0,0,1,2-8,25.19,25.19,0,0,1,11-11.91,24.68,24.68,0,0,1,7.81-2.57,24,24,0,0,1,8.21.09,25.47,25.47,0,0,1,7.73,2.74,24,24,0,0,1,6.36,5.15A24.16,24.16,0,0,1,87.9,41.76a24,24,0,0,1-4.35,15.31c6-9,4.85-21.84-2.52-29.51a23.68,23.68,0,0,0-13.57-7.41,22.87,22.87,0,0,0-7.82,0,23.57,23.57,0,0,0-7.41,2.49A24,24,0,0,0,41.68,33.87a24,24,0,0,0-1.41,15.41,23.81,23.81,0,0,0,8.34,13.13A24.48,24.48,0,0,0,63.37,67.83Z" transform="translate(-38.52 -18.62)"/><text class="cls-1" transform="translate(227.59 34.27)">2</text><path class="cls-2" d="M274,67.83a24.33,24.33,0,0,1-24-18.31,23.94,23.94,0,0,1-.71-8.16,25.67,25.67,0,0,1,2-8,25.19,25.19,0,0,1,11-11.91,24.68,24.68,0,0,1,7.81-2.57,24,24,0,0,1,8.21.09A25.47,25.47,0,0,1,286,21.76a24,24,0,0,1,6.36,5.15,24.16,24.16,0,0,1,6.15,14.85,24,24,0,0,1-4.35,15.31c6-9,4.85-21.84-2.52-29.51a23.68,23.68,0,0,0-13.57-7.41,22.87,22.87,0,0,0-7.82,0,23.57,23.57,0,0,0-7.41,2.49,24,24,0,0,0-10.55,11.26,24,24,0,0,0-1.41,15.41,23.81,23.81,0,0,0,8.34,13.13A24.48,24.48,0,0,0,274,67.83Z" transform="translate(-38.52 -18.62)"/><text class="cls-1" transform="translate(332.91 34.27)">3</text><path class="cls-2" d="M379.33,67.83a24.33,24.33,0,0,1-24-18.31,23.94,23.94,0,0,1-.71-8.16,25.67,25.67,0,0,1,2-8,25.19,25.19,0,0,1,11-11.91,24.68,24.68,0,0,1,7.81-2.57,24,24,0,0,1,8.21.09,25.47,25.47,0,0,1,7.73,2.74,24,24,0,0,1,6.36,5.15,24.16,24.16,0,0,1,6.15,14.85,24,24,0,0,1-4.35,15.31c6-9,4.85-21.84-2.52-29.51a23.68,23.68,0,0,0-13.57-7.41,22.87,22.87,0,0,0-7.82,0,23.57,23.57,0,0,0-7.41,2.49,24,24,0,0,0-10.55,11.26,24,24,0,0,0-1.41,15.41,23.81,23.81,0,0,0,8.34,13.13A24.48,24.48,0,0,0,379.33,67.83Z" transform="translate(-38.52 -18.62)"/><text class="cls-1" transform="translate(543.54 34.27)">5</text><path class="cls-2" d="M590,67.83a24.33,24.33,0,0,1-24-18.31,23.94,23.94,0,0,1-.71-8.16,25.67,25.67,0,0,1,2-8,25.19,25.19,0,0,1,11-11.91A24.68,24.68,0,0,1,586,18.93a24,24,0,0,1,8.21.09A25.47,25.47,0,0,1,602,21.76a24,24,0,0,1,6.36,5.15,24.16,24.16,0,0,1,6.15,14.85,24,24,0,0,1-4.35,15.31c6-9,4.85-21.84-2.52-29.51a23.68,23.68,0,0,0-13.57-7.41,22.87,22.87,0,0,0-7.82,0,23.57,23.57,0,0,0-7.41,2.49,24,24,0,0,0-10.55,11.26,24,24,0,0,0-1.41,15.41,23.81,23.81,0,0,0,8.34,13.13A24.48,24.48,0,0,0,590,67.83Z" transform="translate(-38.52 -18.62)"/><path class="cls-3" d="M484.65,67.83a24.31,24.31,0,1,1,20.18-10.75" transform="translate(-38.52 -18.62)"/><path class="cls-2" d="M484.65,67.83a24.33,24.33,0,0,1-24-18.31,23.94,23.94,0,0,1-.71-8.16,25.67,25.67,0,0,1,2-8,25.19,25.19,0,0,1,11-11.91,24.68,24.68,0,0,1,7.81-2.57,24,24,0,0,1,8.21.09,25.47,25.47,0,0,1,7.73,2.74A24,24,0,0,1,503,26.91a24.16,24.16,0,0,1,6.15,14.85,24,24,0,0,1-4.35,15.31c6-9,4.85-21.84-2.52-29.51a23.68,23.68,0,0,0-13.57-7.41,22.87,22.87,0,0,0-7.82,0,23.57,23.57,0,0,0-7.41,2.49A24,24,0,0,0,463,33.87a24,24,0,0,0-1.41,15.41,23.81,23.81,0,0,0,8.34,13.13A24.48,24.48,0,0,0,484.65,67.83Z" transform="translate(-38.52 -18.62)"/><text class="cls-1" transform="translate(436.22 34.27)">4</text></g></svg>