<svg id="Ebene_1" data-name="Ebene 1" xmlns="http://www.w3.org/2000/svg" viewBox="0 0 170.08 170.08"><defs><style>.cls-1{fill:#fff;}</style></defs><title>persona_icon</title><path class="cls-1" d="M85.09,35.4a47.35,47.35,0,0,0-10.55-6.33A45.05,45.05,0,0,0,68.77,27c-1-.27-2-.44-3-.66L64.27,26l-1.52-.16a38.49,38.49,0,0,0-23.51,4.62l-2.59,1.58c-.83.57-1.61,1.22-2.41,1.83-.39.31-.81.6-1.18.94L32,35.88l-1.08,1.05a9,9,0,0,0-1,1.1l-1.91,2.34a8.72,8.72,0,0,0-.87,1.23l-.81,1.27a43.67,43.67,0,0,0-2.86,5.32,41.15,41.15,0,0,0-3,11.63,38.38,38.38,0,0,0,.7,12A40.19,40.19,0,0,0,25.26,83a20,20,0,0,0,3.37,4.72L33,92l17.68,17.3L86.07,144H84l35.34-34.6L137,92.06l4.42-4.33A19.72,19.72,0,0,0,144.78,83,40.33,40.33,0,0,0,149,71.81a38.28,38.28,0,0,0,.72-12,40.94,40.94,0,0,0-3-11.63l-1.34-2.71c-.24-.44-.42-.92-.7-1.34l-.81-1.27-.81-1.27a9.42,9.42,0,0,0-.86-1.24l-1.91-2.34a8.41,8.41,0,0,0-1-1.1l-1.08-1.05-1.08-1.06c-.36-.35-.79-.63-1.18-.95-.8-.61-1.58-1.25-2.41-1.83l-2.59-1.57a38.28,38.28,0,0,0-23.49-4.64L105.9,26l-1.5.32c-1,.22-2,.39-3,.66a45.08,45.08,0,0,0-5.77,2.09A47.47,47.47,0,0,0,85.09,35.4Zm0,0,2.45-1.91,1.21-.95c.4-.32.86-.56,1.29-.84l2.63-1.64c.89-.53,1.85-.93,2.77-1.4a44.61,44.61,0,0,1,5.78-2.28c1-.3,2-.5,3-.75l1.52-.36,1.55-.2a39.42,39.42,0,0,1,24.31,4.14l2.73,1.59c.87.59,1.69,1.25,2.54,1.87.41.33.86.61,1.25,1l1.15,1.08,1.15,1.08a9.1,9.1,0,0,1,1.09,1.14l2,2.42a10.21,10.21,0,0,1,.92,1.28l.87,1.32.87,1.32c.3.44.5.93.75,1.39l1.45,2.81a42.94,42.94,0,0,1,3.33,12.18,40.49,40.49,0,0,1-.55,12.64,42.71,42.71,0,0,1-4.23,12A28.26,28.26,0,0,1,145.32,87c-.33.44-.62.89-1,1.33s-.77.89-1.13,1.22l-4.39,4.35-17.58,17.4-35.17,34.8-1.05,1-1.05-1L48.8,111.28,31.21,93.88l-4.4-4.35a21.49,21.49,0,0,1-3.76-5.33,42.57,42.57,0,0,1-4.21-12,40.57,40.57,0,0,1-.53-12.64,43.14,43.14,0,0,1,3.35-12.18,45.51,45.51,0,0,1,3.08-5.51l.87-1.32a9.46,9.46,0,0,1,.93-1.27l2-2.42a9.77,9.77,0,0,1,1.1-1.13l1.15-1.08L32,33.61c.4-.35.84-.64,1.25-1,.85-.62,1.67-1.28,2.55-1.86l2.73-1.58a39.62,39.62,0,0,1,24.32-4.13l1.55.2,1.52.36c1,.25,2,.45,3,.75a44.42,44.42,0,0,1,5.79,2.27c.92.47,1.88.86,2.77,1.39l2.63,1.64c.43.28.9.52,1.29.84l1.21.95Z"/></svg>