<svg id="Ebene_1" data-name="Ebene 1" xmlns="http://www.w3.org/2000/svg" xmlns:xlink="http://www.w3.org/1999/xlink" viewBox="0 0 506 518"><defs><style>.cls-1{fill:#dadada;}.cls-10,.cls-14,.cls-18,.cls-2,.cls-27{font-size:20px;fill:#fff;font-family:SofiaPro-Light, Sofia Pro;}.cls-3{letter-spacing:-0.04em;}.cls-10,.cls-4{letter-spacing:-0.01em;}.cls-5{letter-spacing:-0.02em;}.cls-6{letter-spacing:-0.01em;}.cls-7{letter-spacing:-0.01em;}.cls-8{letter-spacing:-0.03em;}.cls-9{letter-spacing:-0.01em;}.cls-11{letter-spacing:0em;}.cls-12{letter-spacing:-0.02em;}.cls-13{letter-spacing:-0.02em;}.cls-14{letter-spacing:-0.1em;}.cls-15{letter-spacing:0.01em;}.cls-16{letter-spacing:-0.01em;}.cls-17{letter-spacing:-0.01em;}.cls-18{letter-spacing:-0.04em;}.cls-19{letter-spacing:0em;}.cls-20{fill:url(#Unbenannter_Verlauf_27);}.cls-21{fill:url(#Unbenannter_Verlauf_27-2);}.cls-22{fill:url(#Unbenannter_Verlauf_27-3);}.cls-23{letter-spacing:-0.12em;}.cls-24{letter-spacing:-0.03em;}.cls-25{letter-spacing:-0.01em;}.cls-26{letter-spacing:-0.01em;}.cls-27{letter-spacing:-0.02em;}.cls-28{letter-spacing:-0.01em;}.cls-29{letter-spacing:-0.01em;}.cls-30{fill:url(#Unbenannter_Verlauf_27-4);}.cls-31{fill:url(#Unbenannter_Verlauf_27-5);}.cls-32{fill:url(#Unbenannter_Verlauf_27-6);}</style><linearGradient id="Unbenannter_Verlauf_27" x1="324.82" y1="347.99" x2="324.82" y2="414.78" gradientUnits="userSpaceOnUse"><stop offset="0" stop-color="#c2ff5a" stop-opacity="0"/><stop offset="0.23" stop-color="#b8f88d"/><stop offset="0.44" stop-color="#aff2b7"/><stop offset="0.66" stop-color="#a7eddd"/><stop offset="0.78" stop-color="#a4ebeb"/><stop offset="0.88" stop-color="#a2e9f7" stop-opacity="0.53"/><stop offset="1" stop-color="#a0e8ff" stop-opacity="0"/></linearGradient><linearGradient id="Unbenannter_Verlauf_27-2" x1="204.82" y1="415.99" x2="204.82" y2="482.78" xlink:href="#Unbenannter_Verlauf_27"/><linearGradient id="Unbenannter_Verlauf_27-3" x1="256.79" y1="284.96" x2="256.79" y2="351.75" xlink:href="#Unbenannter_Verlauf_27"/><linearGradient id="Unbenannter_Verlauf_27-4" x1="127.82" y1="77.52" x2="371.51" y2="77.52" xlink:href="#Unbenannter_Verlauf_27"/><linearGradient id="Unbenannter_Verlauf_27-5" x1="39.82" y1="144.52" x2="459.51" y2="144.52" xlink:href="#Unbenannter_Verlauf_27"/><linearGradient id="Unbenannter_Verlauf_27-6" x1="140.82" y1="209.85" x2="358.51" y2="209.85" xlink:href="#Unbenannter_Verlauf_27"/></defs><title>persona</title><path class="cls-1" d="M142.32,313q27.25-.87,54.5-1.17c9.08-.14,18.17-.17,27.25-.25l27.25-.08,27.25.08c9.08.08,18.17.11,27.25.25q27.25.29,54.5,1.17-27.25.87-54.5,1.17c-9.08.14-18.17.17-27.25.25l-27.25.08-27.25-.08c-9.08-.08-18.17-.11-27.25-.25Q169.57,313.87,142.32,313Z"/><path class="cls-1" d="M142.32,377q27.25-.87,54.5-1.17c9.08-.14,18.17-.17,27.25-.25l27.25-.08,27.25.08c9.08.08,18.17.11,27.25.25q27.25.29,54.5,1.17-27.25.87-54.5,1.17c-9.08.14-18.17.17-27.25.25l-27.25.08-27.25-.08c-9.08-.08-18.17-.11-27.25-.25Q169.57,377.87,142.32,377Z"/><path class="cls-1" d="M142.32,443q27.25-.87,54.5-1.17c9.08-.14,18.17-.17,27.25-.25l27.25-.08,27.25.08c9.08.08,18.17.11,27.25.25q27.25.29,54.5,1.17-27.25.87-54.5,1.17c-9.08.14-18.17.17-27.25.25l-27.25.08-27.25-.08c-9.08-.08-18.17-.11-27.25-.25Q169.57,443.87,142.32,443Z"/><text class="cls-2" transform="translate(50.68 317)"><tspan class="cls-3">K</tspan><tspan class="cls-4" x="10.42" y="0">o</tspan><tspan class="cls-5" x="22.02" y="0">n</tspan><tspan class="cls-6" x="32.84" y="0">tr</tspan><tspan class="cls-7" x="45.98" y="0">o</tspan><tspan class="cls-8" x="57.58" y="0">l</tspan><tspan class="cls-9" x="61.46" y="0">l</tspan><tspan x="65.84" y="0">e</tspan></text><text class="cls-10" transform="translate(78.67 381)">Inhal<tspan class="cls-11" x="43.84" y="0">t</tspan></text><text class="cls-2" transform="translate(74.15 447)"><tspan class="cls-12">A</tspan><tspan class="cls-4" x="12.42" y="0">rbe</tspan><tspan class="cls-13" x="42.98" y="0">i</tspan><tspan x="47.18" y="0">t</tspan></text><text class="cls-14" transform="translate(380.3 317)">V<tspan class="cls-4" x="9.08" y="0">e</tspan><tspan class="cls-15" x="20.1" y="0">r</tspan><tspan class="cls-6" x="27.8" y="0">tr</tspan><tspan class="cls-7" x="40.94" y="0">aue</tspan><tspan class="cls-11" x="75.12" y="0">n</tspan></text><text class="cls-2" transform="translate(380.3 381)"><tspan class="cls-12">A</tspan><tspan class="cls-16" x="12.42" y="0">u</tspan><tspan class="cls-17" x="23.46" y="0">s</tspan><tspan class="cls-4" x="31.64" y="0">sehe</tspan><tspan x="73.08" y="0">n</tspan></text><text class="cls-18" transform="translate(380.3 447)">F<tspan class="cls-7" x="9.56" y="0">amili</tspan><tspan class="cls-19" x="52.74" y="0">e</tspan></text><path class="cls-20" d="M319.32,365h6a5,5,0,0,1,5,5v19a0,0,0,0,1,0,0h-11a0,0,0,0,1,0,0V365A0,0,0,0,1,319.32,365Z"/><path class="cls-21" d="M199.32,433h6a5,5,0,0,1,5,5v19a0,0,0,0,1,0,0h-11a0,0,0,0,1,0,0V433A0,0,0,0,1,199.32,433Z"/><path class="cls-22" d="M251.29,302h6a5,5,0,0,1,5,5v19a0,0,0,0,1,0,0h-11a0,0,0,0,1,0,0V302A0,0,0,0,1,251.29,302Z"/><text class="cls-2" transform="translate(169.22 63.52)"><tspan class="cls-23">T</tspan><tspan x="8.94" y="0">echnische A</tspan><tspan class="cls-24" x="115.98" y="0">f</tspan><tspan x="121.88" y="0">ﬁn</tspan><tspan class="cls-25" x="144.98" y="0">i</tspan><tspan class="cls-11" x="149.3" y="0">tät</tspan></text><text class="cls-2" transform="translate(211.93 130.52)">P<tspan class="cls-26" x="12.02" y="0">r</tspan><tspan x="19.42" y="0">emium</tspan></text><text class="cls-27" transform="translate(200.59 197.52)">C<tspan class="cls-11" x="12.92" y="0">ommun</tspan><tspan class="cls-28" x="82.68" y="0">i</tspan><tspan class="cls-29" x="87.02" y="0">t</tspan><tspan class="cls-19" x="93.02" y="0">y</tspan></text><polygon class="cls-1" points="37.16 77.52 90.29 77.03 143.41 76.75 249.66 76.52 355.91 76.75 409.04 77.03 462.16 77.52 409.04 78.01 355.91 78.29 249.66 78.52 143.41 78.28 90.29 78 37.16 77.52"/><polygon class="cls-1" points="37.16 144.52 90.29 144.03 143.41 143.75 249.66 143.52 355.91 143.75 409.04 144.03 462.16 144.52 409.04 145.01 355.91 145.29 249.66 145.52 143.41 145.28 90.29 145 37.16 144.52"/><polygon class="cls-1" points="37.16 209.85 90.29 209.36 143.41 209.09 249.66 208.85 355.91 209.08 409.04 209.36 462.16 209.85 409.04 210.34 355.91 210.62 249.66 210.85 143.41 210.62 90.29 210.34 37.16 209.85"/><path class="cls-30" d="M127.82,77.52c20.31-1.24,40.62-1.89,60.92-2.33,10.15-.28,20.31-.34,30.46-.5l30.46-.17q30.46,0,60.92.66c20.31.44,40.61,1.09,60.92,2.34-20.31,1.25-40.62,1.9-60.92,2.34s-40.62.67-60.92.66l-30.46-.17c-10.15-.16-20.31-.22-30.46-.5C168.43,79.41,148.13,78.76,127.82,77.52Z"/><path class="cls-31" d="M39.82,144.52c35-1.45,69.95-2.21,104.92-2.72,17.49-.32,35-.39,52.46-.58l52.46-.19,52.46.18c17.49.2,35,.26,52.46.58,35,.51,69.95,1.27,104.92,2.73-35,1.46-69.95,2.22-104.92,2.73-17.49.33-35,.39-52.46.58l-52.46.18-52.46-.19c-17.49-.19-35-.26-52.46-.58C109.77,146.72,74.79,146,39.82,144.52Z"/><path class="cls-32" d="M140.82,209.85c18.14-1.24,36.28-1.89,54.42-2.33,9.07-.28,18.14-.34,27.21-.5l27.21-.17q27.21,0,54.42.66c18.14.44,36.28,1.09,54.42,2.34-18.14,1.25-36.28,1.9-54.42,2.34s-36.28.67-54.42.66l-27.21-.17c-9.07-.16-18.14-.22-27.21-.5C177.1,211.74,159,211.09,140.82,209.85Z"/></svg>