<svg id="Ebene_1" data-name="Ebene 1" xmlns="http://www.w3.org/2000/svg" viewBox="0 0 170.08 170.08"><defs><style>.cls-1{fill:#fff;}</style></defs><title>persona_icon</title><path class="cls-1" d="M65.7,26.24,105,25.71h.77l-.28.73L94.26,56,83,85.65l-1-1.4,25.86-.06h2l-1.06,1.68-21.14,33.6c-7,11.22-14.18,22.34-21.27,33.52l-2.7,4.25.6-5,5.48-45.37,1,1.14L52,107.88H51l.18-1,7.22-40.51Zm0,0L59.35,66.89l-6.44,40.25-.87-1L70.82,106H72l-.13,1.15-5.25,45.39-2.09-.74c7.07-11.19,14.05-22.42,21.18-33.57L107,84.7l.92,1.68L82,86.31H80.53l.55-1.4L92.77,55.47,104.48,26l.49.72Z"/></svg>