<svg id="Ebene_1" data-name="Ebene 1" xmlns="http://www.w3.org/2000/svg" viewBox="0 0 170.08 170.08"><defs><style>.cls-1{fill:#fff;}</style></defs><title>persona_icon</title><path class="cls-1" d="M31.3,144.75,30.89,114c-.13-10.32-.32-20.7-.39-31.11v-.64l.64-.14c6.64-1.46,13.28-3,19.82-4.73,1.61-.45,3.31-.89,4.78-1.46a7.84,7.84,0,0,0,1-.49l1-.63a20,20,0,0,0,1.81-1.59,49.46,49.46,0,0,0,6.16-7.85c1.89-2.81,3.6-5.71,5.57-8.59.27-.36.51-.72.8-1.08s.68-.8.77-1a12.64,12.64,0,0,0,1-2c.64-1.51,1.19-3.11,1.72-4.7,2.14-6.41,4-13,6-19.49,1-3.27,2-6.52,3.24-9.78.31-.81.66-1.63,1.06-2.47l.35-.64c.13-.22.31-.46.47-.69a3.13,3.13,0,0,1,.83-.7,5.23,5.23,0,0,1,.72-.38A12.66,12.66,0,0,1,93.91,13a15.69,15.69,0,0,1,5.44,1.24,10.71,10.71,0,0,1,4.53,3.59,17.15,17.15,0,0,1,1.37,2.41q.59,1.19,1.08,2.42c.35.81.62,1.65.93,2.47l.78,2.51a54.15,54.15,0,0,1,1.82,10.31,61.74,61.74,0,0,1,0,10.43,79,79,0,0,1-4.36,20.29l-1.4-2c4.89,0,9.76,0,14.71.09a34.32,34.32,0,0,1,7.59.88,15.11,15.11,0,0,1,3.71,1.5c.59.31,1.12.68,1.67,1a15.23,15.23,0,0,1,1.58,1.2,18.05,18.05,0,0,1,4.55,6.46,26.37,26.37,0,0,1,2,7.44,23.37,23.37,0,0,1-.32,7.74,18.15,18.15,0,0,1-3.25,7.16l.11-1.46a14.78,14.78,0,0,1,1.63,5,20.08,20.08,0,0,1,.1,5.09,19.49,19.49,0,0,1-1.17,5,11.65,11.65,0,0,1-2.91,4.48l.41-1.22a19.39,19.39,0,0,1-.28,9,16.48,16.48,0,0,1-4.83,7.72l.33-1.26c1.12,3.95.29,7.8-1.16,11.26a20.36,20.36,0,0,1-2.95,4.81,20.14,20.14,0,0,1-4.19,3.78,19.71,19.71,0,0,1-5.11,2.34c-.45.13-.9.28-1.35.38l-1.34.28c-.89.2-1.79.32-2.69.47a80.05,80.05,0,0,1-10.8.79,96.92,96.92,0,0,1-21.43-2.25,87.45,87.45,0,0,1-20.28-7.15l.13,0q-6.8-.86-13.63-1.45C40.43,145.38,35.87,145,31.3,144.75Zm0,0c9.15.24,18.29.77,27.4,1.7h.06l.07,0A86.39,86.39,0,0,0,79,153.05q5.22,1,10.52,1.48a98.88,98.88,0,0,0,10.61.35,78.26,78.26,0,0,0,10.53-.93c.86-.15,1.73-.28,2.58-.49l1.28-.29c.42-.1.81-.25,1.22-.37a17.7,17.7,0,0,0,4.55-2.17,17.64,17.64,0,0,0,6.24-7.76,18.77,18.77,0,0,0,1.29-4.85,11.67,11.67,0,0,0-.36-4.79l-.24-.73.57-.53a14,14,0,0,0,4-6.63,17.14,17.14,0,0,0,.18-7.87l-.14-.71.55-.51a9.22,9.22,0,0,0,2.18-3.48,16.9,16.9,0,0,0,1-4.3,14.73,14.73,0,0,0-1.45-8.47l-.42-.76.53-.7c2.72-3.58,3.54-8.38,3-12.94A23.63,23.63,0,0,0,135.37,79a15.37,15.37,0,0,0-3.82-5.43,12.31,12.31,0,0,0-1.34-1c-.48-.31-1-.64-1.46-.89a12.26,12.26,0,0,0-3.07-1.23,31.81,31.81,0,0,0-6.95-.75c-4.82-.11-9.73,0-14.62,0H102l.68-2a80.59,80.59,0,0,0,4.22-19.54,58.87,58.87,0,0,0,0-10,51.3,51.3,0,0,0-1.67-9.79L104.57,26c-.29-.77-.53-1.56-.86-2.32s-.63-1.52-1-2.25a14.73,14.73,0,0,0-1.13-2c-1.61-2.35-4.77-3.54-7.84-3.71a10.13,10.13,0,0,0-4.39.6,3.27,3.27,0,0,0-.56.31c-.08.12-.16.22-.24.36l-.26.48c-.34.7-.67,1.44-1,2.22-1.2,3.1-2.22,6.35-3.23,9.59-2,6.49-3.9,13-6.12,19.53-.57,1.62-1.15,3.24-1.87,4.86a14.28,14.28,0,0,1-1.34,2.49c-.41.53-.57.69-.85,1s-.49.64-.73,1c-1.92,2.71-3.71,5.64-5.67,8.46A51.39,51.39,0,0,1,61,74.67a13.53,13.53,0,0,1-4.52,3.08c-1.71.62-3.33,1-5,1.45-6.64,1.67-13.3,3.08-20,4.45l.63-.78c-.07,10.22-.26,20.47-.39,30.78Z"/></svg>